<?xml version="1.0" encoding="UTF-8"?>
<svg width="30.192mm" height="20.365mm" version="1.1" viewBox="0 0 106.98114 72.158581" xmlns="http://www.w3.org/2000/svg" xmlns:xlink="http://www.w3.org/1999/xlink">
 <defs>
  <pattern id="f" xlink:href="#d" patternTransform="matrix(.89286 0 0 4.2956 -54.766 1002.5)"/>
  <pattern id="d" width="10" height="10" patternTransform="translate(0) scale(10)" patternUnits="userSpaceOnUse">
   <circle cx="2.567" cy=".81" r=".45"/>
   <circle cx="3.048" cy="2.33" r=".45"/>
   <circle cx="4.418" cy="2.415" r=".45"/>
   <circle cx="1.844" cy="3.029" r=".45"/>
   <circle cx="6.08" cy="1.363" r=".45"/>
   <circle cx="5.819" cy="4.413" r=".45"/>
   <circle cx="4.305" cy="4.048" r=".45"/>
   <circle cx="5.541" cy="3.045" r=".45"/>
   <circle cx="4.785" cy="5.527" r=".45"/>
   <circle cx="2.667" cy="5.184" r=".45"/>
   <circle cx="7.965" cy="1.448" r=".45"/>
   <circle cx="7.047" cy="5.049" r=".45"/>
   <circle cx="4.34" cy=".895" r=".45"/>
   <circle cx="7.125" cy=".34" r=".45"/>
   <circle cx="9.553" cy="1.049" r=".45"/>
   <circle cx="7.006" cy="2.689" r=".45"/>
   <circle cx="8.909" cy="2.689" r=".45"/>
   <circle cx="9.315" cy="4.407" r=".45"/>
   <circle cx="7.82" cy="3.87" r=".45"/>
   <circle cx="8.27" cy="5.948" r=".45"/>
   <circle cx="7.973" cy="7.428" r=".45"/>
   <circle cx="9.342" cy="8.072" r=".45"/>
   <circle cx="8.206" cy="9.315" r=".45"/>
   <circle cx="9.682" cy="9.475" r=".45"/>
   <circle cx="9.688" cy="6.186" r=".45"/>
   <circle cx="3.379" cy="6.296" r=".45"/>
   <circle cx="2.871" cy="8.204" r=".45"/>
   <circle cx="4.59" cy="8.719" r=".45"/>
   <circle cx="3.181" cy="9.671" r=".45"/>
   <circle cx="5.734" cy="7.315" r=".45"/>
   <circle cx="6.707" cy="6.513" r=".45"/>
   <circle cx="5.73" cy="9.67" r=".45"/>
   <circle cx="6.535" cy="8.373" r=".45"/>
   <circle cx="4.37" cy="7.154" r=".45"/>
   <circle cx=".622" cy="7.25" r=".45"/>
   <circle cx=".831" cy="5.679" r=".45"/>
   <circle cx="1.257" cy="8.519" r=".45"/>
   <circle cx="1.989" cy="6.877" r=".45"/>
   <circle cx=".374" cy="3.181" r=".45"/>
   <circle cx="1.166" cy="1.664" r=".45"/>
   <circle cx="1.151" cy=".093" r=".45"/>
   <circle cx="1.151" cy="10.093" r=".45"/>
   <circle cx="1.302" cy="4.451" r=".45"/>
   <circle cx="3.047" cy="3.763" r=".45"/>
  </pattern>
  <clipPath id="e">
   <path d="m156.95 927.38 39.683 4.2306 4.0774 26.398-40.714 1.51z" fill="none" stroke="#000" stroke-width=".99921"/>
  </clipPath>
 </defs>
 <g transform="translate(.27611 -967.24)">
  <g fill="#aeaeae" fill-rule="evenodd" stroke="#000" stroke-width="1px">
   <path d="m56.071 971.38 5.4464-0.0893 0.08929 5.7143-5.4464-0.44643z"/>
   <path d="m58.661 971.29 0.17857 5.7143"/>
  </g>
  <rect x="52.768" y="1005.8" width="38.75" height="23.14" color="#000000" fill="#fff3ca" fill-rule="evenodd" stroke="#000" stroke-linecap="round" stroke-width="1.1693"/>
  <path d="m63.01 1010.4 0.17678 19.445 2.8284-0.1767-0.53033-19.446z" fill="#4b3900" fill-rule="evenodd"/>
  <path d="m55.685 1005.3 39.648 1.3889 0.37881 2.1465-40.027-1.1364z" fill="#8e3600" fill-rule="evenodd" stroke="#000" stroke-width="1.063"/>
  <path d="m30.431 973.82-18.056 34.977 2.3991 0.505 17.804-35.229z" fill="#964a00" fill-rule="evenodd" stroke="#000" stroke-width="1.063"/>
  <path d="m31.694 975.46-17.173 33.84 0.12627 19.572 38.133 0.1262 0.12627-25.128z" fill="#fff9e4" fill-rule="evenodd" stroke="#000" stroke-width="1.063"/>
  <path d="m30.178 985.44 2.1466-4.2932 2.9042 4.2932z" fill="#8ec8ff" fill-rule="evenodd" stroke="#390000" stroke-width="1px"/>
  <path d="m31.315 971.42 24.244 33.588 0.12627 2.7779-25.38-34.471z" fill="#844200" fill-rule="evenodd" stroke="#000" stroke-linejoin="bevel" stroke-width="1.063"/>
  <path d="m36.15 989.55v9.6484h4.7246v-9.6484h-4.7246zm1.0625 1.0625h2.5977v0.30859l-2.5977-0.0488v-0.25977zm0 0.9668 2.5977 0.0508v0.54687l-2.5977-0.0488v-0.54883zm0 1.2578 2.5977 0.0488v0.54687l-2.5977-0.0488v-0.54687zm0 1.2559 2.5977 0.0488v0.54883l-2.5977-0.0508v-0.54687zm0 1.2559 2.5977 0.0488v0.54882l-2.5977-0.0488v-0.54883zm0 1.2559 2.5977 0.0508v0.54687l-2.5977-0.0488v-0.54883zm0 1.2578 2.5977 0.0488v0.22461h-2.5977v-0.27344z" color="#000000" color-rendering="auto" fill="#1b5a00" fill-rule="evenodd" image-rendering="auto" shape-rendering="auto" solid-color="#000000" style="block-progression:tb;isolation:auto;mix-blend-mode:normal;text-decoration-color:#000000;text-decoration-line:none;text-decoration-style:solid;text-indent:0;text-transform:none;white-space:normal"/>
  <rect x="30.66" y="989.55" width="5.1265" height="9.5459" color="#000000" fill="#8ec8ff" fill-rule="evenodd"/>
  <path transform="translate(0 946.06)" d="m30.562 43.486v9.6484h5.2305v-9.6484h-5.2305zm1.0625 1.0625h1.1973v3.4082h-1.1973v-3.4082zm1.9062 0h1.1973v3.4082h-1.1973v-3.4082zm-1.9062 4.1152h1.1973v3.4082h-1.1973v-3.4082zm1.9062 0h1.1973v3.4082h-1.1973v-3.4082z" color="#000000" color-rendering="auto" fill="#3b0000" fill-rule="evenodd" image-rendering="auto" shape-rendering="auto" solid-color="#000000" style="block-progression:tb;isolation:auto;mix-blend-mode:normal;text-decoration-color:#000000;text-decoration-line:none;text-decoration-style:solid;text-indent:0;text-transform:none;white-space:normal"/>
  <path d="m25.354 989.55v9.6484h4.7246v-9.6484h-4.7246zm1.0625 1.0625h2.5977v0.30859l-2.5977-0.0488v-0.25976zm0 0.9668 2.5977 0.0508v0.54687l-2.5977-0.0488v-0.54883zm0 1.2578 2.5977 0.0488v0.54687l-2.5977-0.0488v-0.54687zm0 1.2559 2.5977 0.0488v0.54883l-2.5977-0.0508v-0.54688zm0 1.2559 2.5977 0.0488v0.54883l-2.5977-0.0488v-0.54883zm0 1.2559 2.5977 0.0508v0.54687l-2.5977-0.0488v-0.54883zm0 1.2578 2.5977 0.0488v0.22461h-2.5977v-0.27344z" color="#000000" color-rendering="auto" fill="#1b5a00" fill-rule="evenodd" image-rendering="auto" shape-rendering="auto" solid-color="#000000" style="block-progression:tb;isolation:auto;mix-blend-mode:normal;text-decoration-color:#000000;text-decoration-line:none;text-decoration-style:solid;text-indent:0;text-transform:none;white-space:normal"/>
  <path d="m27.232 1008.8v9.6485h4.7246v-9.6485h-4.7246zm1.0625 1.0625h2.5977v0.3086l-2.5977-0.049v-0.2598zm0 0.9668 2.5977 0.051v0.5469l-2.5977-0.049v-0.5488zm0 1.2578 2.5977 0.049v0.5469l-2.5977-0.049v-0.5469zm0 1.2559 2.5977 0.049v0.5488l-2.5977-0.051v-0.5469zm0 1.2558 2.5977 0.049v0.5489l-2.5977-0.049v-0.5489zm0 1.2559 2.5977 0.051v0.5469l-2.5977-0.049v-0.5489zm0 1.2578 2.5977 0.049v0.2246h-2.5977v-0.2734z" color="#000000" color-rendering="auto" fill="#1b5a00" fill-rule="evenodd" image-rendering="auto" shape-rendering="auto" solid-color="#000000" style="block-progression:tb;isolation:auto;mix-blend-mode:normal;text-decoration-color:#000000;text-decoration-line:none;text-decoration-style:solid;text-indent:0;text-transform:none;white-space:normal"/>
  <rect x="21.644" y="1008.9" width="5.1265" height="9.5459" color="#000000" fill="#8ec8ff" fill-rule="evenodd"/>
  <path d="m21.645 1008.8v9.6485h5.2305v-9.6485h-5.2305zm1.0625 1.0625h1.1973v3.4082h-1.1973v-3.4082zm1.9062 0h1.1973v3.4082h-1.1973v-3.4082zm-1.9062 4.1153h1.1973v3.4082h-1.1973v-3.4082zm1.9062 0h1.1973v3.4082h-1.1973v-3.4082z" color="#000000" color-rendering="auto" fill="#3b0000" fill-rule="evenodd" image-rendering="auto" shape-rendering="auto" solid-color="#000000" style="block-progression:tb;isolation:auto;mix-blend-mode:normal;text-decoration-color:#000000;text-decoration-line:none;text-decoration-style:solid;text-indent:0;text-transform:none;white-space:normal"/>
  <path d="m16.436 1008.8v9.6485h4.7246v-9.6485h-4.7246zm1.0625 1.0625h2.5977v0.3086l-2.5977-0.049v-0.2597zm0 0.9668 2.5977 0.051v0.5469l-2.5977-0.049v-0.5488zm0 1.2578 2.5977 0.049v0.5469l-2.5977-0.049v-0.5469zm0 1.2559 2.5977 0.049v0.5488l-2.5977-0.051v-0.5469zm0 1.2559 2.5977 0.049v0.5488l-2.5977-0.049v-0.5488zm0 1.2558 2.5977 0.051v0.5469l-2.5977-0.049v-0.5488zm0 1.2578 2.5977 0.049v0.2246h-2.5977v-0.2734z" color="#000000" color-rendering="auto" fill="#1b5a00" fill-rule="evenodd" image-rendering="auto" shape-rendering="auto" solid-color="#000000" style="block-progression:tb;isolation:auto;mix-blend-mode:normal;text-decoration-color:#000000;text-decoration-line:none;text-decoration-style:solid;text-indent:0;text-transform:none;white-space:normal"/>
  <path d="m44.197 1008.7v9.6484h4.7246v-9.6484h-4.7246zm1.0625 1.0625h2.5977v0.3086l-2.5977-0.049v-0.2598zm0 0.9668 2.5977 0.051v0.5469l-2.5977-0.049v-0.5489zm0 1.2578 2.5977 0.049v0.5469l-2.5977-0.049v-0.5469zm0 1.2559 2.5977 0.049v0.5488l-2.5977-0.051v-0.5469zm0 1.2558 2.5977 0.049v0.5488l-2.5977-0.049v-0.5488zm0 1.2559 2.5977 0.051v0.5469l-2.5977-0.049v-0.5489zm0 1.2578 2.5977 0.049v0.2246h-2.5977v-0.2734z" color="#000000" color-rendering="auto" fill="#1b5a00" fill-rule="evenodd" image-rendering="auto" shape-rendering="auto" solid-color="#000000" style="block-progression:tb;isolation:auto;mix-blend-mode:normal;text-decoration-color:#000000;text-decoration-line:none;text-decoration-style:solid;text-indent:0;text-transform:none;white-space:normal"/>
  <rect x="38.615" y="1008.7" width="5.1265" height="9.5459" color="#000000" fill="#8ec8ff" fill-rule="evenodd"/>
  <path d="m38.609 1008.7v9.6485h5.2305v-9.6485h-5.2305zm1.0625 1.0625h1.1973v3.4082h-1.1973v-3.4082zm1.9062 0h1.1973v3.4082h-1.1973v-3.4082zm-1.9062 4.1152h1.1973v3.4083h-1.1973v-3.4083zm1.9062 0h1.1973v3.4083h-1.1973v-3.4083z" color="#000000" color-rendering="auto" fill="#3b0000" fill-rule="evenodd" image-rendering="auto" shape-rendering="auto" solid-color="#000000" style="block-progression:tb;isolation:auto;mix-blend-mode:normal;text-decoration-color:#000000;text-decoration-line:none;text-decoration-style:solid;text-indent:0;text-transform:none;white-space:normal"/>
  <path d="m33.4 1008.7v9.6484h4.7246v-9.6484h-4.7246zm1.0625 1.0625h2.5977v0.3086l-2.5977-0.049v-0.2598zm0 0.9668 2.5977 0.051v0.5469l-2.5977-0.049v-0.5489zm0 1.2578 2.5977 0.049v0.5469l-2.5977-0.049v-0.5469zm0 1.2559 2.5977 0.049v0.5488l-2.5977-0.051v-0.5469zm0 1.2558 2.5977 0.049v0.5489l-2.5977-0.049v-0.5489zm0 1.2559 2.5977 0.051v0.5469l-2.5977-0.049v-0.5489zm0 1.2578 2.5977 0.049v0.2246h-2.5977v-0.2734z" color="#000000" color-rendering="auto" fill="#1b5a00" fill-rule="evenodd" image-rendering="auto" shape-rendering="auto" solid-color="#000000" style="block-progression:tb;isolation:auto;mix-blend-mode:normal;text-decoration-color:#000000;text-decoration-line:none;text-decoration-style:solid;text-indent:0;text-transform:none;white-space:normal"/>
  <path d="m85.09 1009.7v8.6664h3.921v-8.6664h-3.921zm0.88179 0.9544h2.1558v0.2771l-2.1558-0.044v-0.2334zm0 0.8683 2.1558 0.046v0.4912l-2.1558-0.044v-0.493zm0 1.1298 2.1558 0.044v0.4913l-2.1558-0.044v-0.4912zm0 1.128 2.1558 0.044v0.493l-2.1558-0.046v-0.4913zm0 1.1281 2.1558 0.044v0.493l-2.1558-0.044v-0.4929zm0 1.128 2.1558 0.046v0.4912l-2.1558-0.044v-0.493zm0 1.1297 2.1558 0.044v0.2017h-2.1558v-0.2456z" color="#000000" color-rendering="auto" fill="#1b5a00" fill-rule="evenodd" image-rendering="auto" shape-rendering="auto" solid-color="#000000" style="block-progression:tb;isolation:auto;mix-blend-mode:normal;text-decoration-color:#000000;text-decoration-line:none;text-decoration-style:solid;text-indent:0;text-transform:none;white-space:normal"/>
  <rect x="79.715" y="1009.8" width="4.4194" height="8.3085" color="#000000" fill="#8ec8ff" fill-rule="evenodd"/>
  <path d="m79.591 1009.6v8.7556h4.784v-8.7556h-4.784zm0.97181 0.9642h1.0951v3.0928h-1.0951v-3.0928zm1.7435 0h1.0951v3.0928h-1.0951v-3.0928zm-1.7435 3.7345h1.0951v3.0928h-1.0951v-3.0928zm1.7435 0h1.0951v3.0928h-1.0951v-3.0928z" color="#000000" color-rendering="auto" fill="#3b0000" fill-rule="evenodd" image-rendering="auto" shape-rendering="auto" solid-color="#000000" style="block-progression:tb;isolation:auto;mix-blend-mode:normal;text-decoration-color:#000000;text-decoration-line:none;text-decoration-style:solid;text-indent:0;text-transform:none;white-space:normal"/>
  <path d="m74.382 1009.7v8.7556h4.4568v-8.7556h-4.4568zm1.0023 0.9642h2.4504v0.28l-2.4504-0.044v-0.2357zm0 0.8773 2.4504 0.046v0.4963l-2.4504-0.044v-0.498zm0 1.1414 2.4504 0.044v0.4963l-2.4504-0.044v-0.4963zm0 1.1397 2.4504 0.045v0.498l-2.4504-0.046v-0.4963zm0 1.1397 2.4504 0.044v0.4981l-2.4504-0.044v-0.498zm0 1.1396 2.4504 0.046v0.4963l-2.4504-0.044v-0.498zm0 1.1414 2.4504 0.044v0.2039h-2.4504v-0.2481z" color="#000000" color-rendering="auto" fill="#1b5a00" fill-rule="evenodd" image-rendering="auto" shape-rendering="auto" solid-color="#000000" style="block-progression:tb;isolation:auto;mix-blend-mode:normal;text-decoration-color:#000000;text-decoration-line:none;text-decoration-style:solid;text-indent:0;text-transform:none;white-space:normal"/>
  <path d="m58.165 1009.6v19.742h3.7584v-19.742h-3.7584zm0.86255 1.0864h2.0347v0.497h-2.0347v-0.497zm0 1.1535h2.0347v0.6656h-2.0347v-0.6656zm0 1.324h2.0347v0.6656h-2.0347v-0.6656zm0 1.324h2.0347v0.6638h-2.0347v-0.6638zm0 1.3221h2.0347v0.6657h-2.0347v-0.6657zm0 1.324h2.0347v0.6638h-2.0347v-0.6638zm0 1.3222h2.0347v0.6656h-2.0347v-0.6656zm0 1.324h2.0347v0.6638h-2.0347v-0.6638zm0 1.3221h2.0347v0.6657h-2.0347v-0.6657zm0 1.324h2.0347v0.6638h-2.0347v-0.6638zm0 1.3222h2.0347v0.6656h-2.0347v-0.6656zm0 1.324h2.0347v0.6638h-2.0347v-0.6638zm0 1.3221h2.0347v0.6657h-2.0347v-0.6657zm0 1.324h2.0347v0.5369h-2.0347v-0.5369z" color="#000000" color-rendering="auto" fill="#1b5a00" fill-rule="evenodd" image-rendering="auto" shape-rendering="auto" solid-color="#000000" style="block-progression:tb;isolation:auto;mix-blend-mode:normal;text-decoration-color:#000000;text-decoration-line:none;text-decoration-style:solid;text-indent:0;text-transform:none;white-space:normal"/>
  <path d="m68.79 1009.4v20.099h3.2227v-20.099h-3.2227zm0.73961 1.106h1.7447v0.506h-1.7447v-0.506zm0 1.1744h1.7447v0.6777h-1.7447v-0.6777zm0 1.348h1.7447v0.6776h-1.7447v-0.6776zm0 1.3479h1.7447v0.6758h-1.7447v-0.6758zm0 1.3461h1.7447v0.6776h-1.7447v-0.6776zm0 1.3479h1.7447v0.6758h-1.7447v-0.6758zm0 1.3461h1.7447v0.6777h-1.7447v-0.6777zm0 1.348h1.7447v0.6757h-1.7447v-0.6757zm0 1.346h1.7447v0.6777h-1.7447v-0.6777zm0 1.348h1.7447v0.6759h-1.7447v-0.6759zm0 1.346h1.7447v0.6777h-1.7447v-0.6777zm0 1.348h1.7447v0.6759h-1.7447v-0.6759zm0 1.3462h1.7447v0.6775h-1.7447v-0.6775zm0 1.3478h1.7447v0.5467h-1.7447v-0.5467z" color="#000000" color-rendering="auto" fill="#1b5a00" fill-rule="evenodd" image-rendering="auto" shape-rendering="auto" solid-color="#000000" style="block-progression:tb;isolation:auto;mix-blend-mode:normal;text-decoration-color:#000000;text-decoration-line:none;text-decoration-style:solid;text-indent:0;text-transform:none;white-space:normal"/>
  <path d="m67.957 1009.7-5.6797 0.098 0.01758 1 0.54582-0.074 0.11365 18.442 2.9409 0.3031c1.0383-0.048 1.5321-0.2029 2.3372-0.2715zm-0.51718 0.6558 0.16197 10.445c0.11162 5.1159-0.21045 5.3645 0.06314 8.1226l-1.3263-0.1138-0.21088-18.426zm-1.9972 0.01 0.3144 18.337-2.4914 0.4394v-18.738z" color="#000000" color-rendering="auto" fill="#636363" fill-rule="evenodd" image-rendering="auto" shape-rendering="auto" solid-color="#000000" style="block-progression:tb;isolation:auto;mix-blend-mode:normal;text-decoration-color:#000000;text-decoration-line:none;text-decoration-style:solid;text-indent:0;text-transform:none;white-space:normal"/>
  <g transform="matrix(.99999 .069821 .66349 1.0463 -740.61 -10.169)" clip-path="url(#e)" fill="#b70000" fill-rule="evenodd" stroke="#000" stroke-linecap="round" stroke-width=".70866">
   <g transform="translate(-2.0536 -17.857)">
    <path d="m153.87 977.22h2.8572v2.8571c0.0446 0.9375-0.77381 1.3839-1.25 1.3839-0.4762 0-1.6518-0.49107-1.6072-1.3839z" color="#000000"/>
    <path d="m156.78 977.22h2.8572v2.8571c0.0446 0.9375-0.77381 1.3839-1.25 1.3839-0.4762 0-1.6518-0.49107-1.6072-1.3839z" color="#000000"/>
    <path d="m159.63 977.22h2.8572v2.8571c0.0446 0.9375-0.77381 1.3839-1.25 1.3839-0.4762 0-1.6518-0.49107-1.6072-1.3839z" color="#000000"/>
    <path d="m162.57 977.22h2.8572v2.8571c0.0446 0.9375-0.77381 1.3839-1.25 1.3839-0.4762 0-1.6518-0.49107-1.6072-1.3839z" color="#000000"/>
    <path d="m165.47 977.22h2.8572v2.8571c0.0446 0.9375-0.77381 1.3839-1.25 1.3839-0.4762 0-1.6518-0.49107-1.6072-1.3839z" color="#000000"/>
    <path d="m168.33 977.22h2.8572v2.8571c0.0446 0.9375-0.77381 1.3839-1.25 1.3839-0.4762 0-1.6518-0.49107-1.6072-1.3839z" color="#000000"/>
    <path d="m171.17 977.22h2.8572v2.8571c0.0446 0.9375-0.77381 1.3839-1.25 1.3839-0.4762 0-1.6518-0.49107-1.6072-1.3839z" color="#000000"/>
    <path d="m174.07 977.22h2.8572v2.8571c0.0446 0.9375-0.77381 1.3839-1.25 1.3839-0.4762 0-1.6518-0.49107-1.6072-1.3839z" color="#000000"/>
    <path d="m176.93 977.22h2.8572v2.8571c0.0446 0.9375-0.77381 1.3839-1.25 1.3839-0.4762 0-1.6518-0.49107-1.6072-1.3839z" color="#000000"/>
    <path d="m179.86 977.22h2.8572v2.8571c0.0446 0.9375-0.77381 1.3839-1.25 1.3839-0.4762 0-1.6518-0.49107-1.6072-1.3839z" color="#000000"/>
    <path d="m182.76 977.22h2.8572v2.8571c0.0446 0.9375-0.77381 1.3839-1.25 1.3839-0.4762 0-1.6518-0.49107-1.6072-1.3839z" color="#000000"/>
    <path d="m185.62 977.22h2.8572v2.8571c0.0446 0.9375-0.77381 1.3839-1.25 1.3839-0.4762 0-1.6518-0.49107-1.6072-1.3839z" color="#000000"/>
    <path d="m188.49 977.22h2.8572v2.8571c0.0446 0.9375-0.77381 1.3839-1.25 1.3839-0.4762 0-1.6518-0.49107-1.6072-1.3839z" color="#000000"/>
    <path d="m191.39 977.22h2.8572v2.8571c0.0446 0.9375-0.77381 1.3839-1.25 1.3839-0.4762 0-1.6518-0.49107-1.6072-1.3839z" color="#000000"/>
    <path d="m194.25 977.22h2.8572v2.8571c0.0446 0.9375-0.77381 1.3839-1.25 1.3839-0.4762 0-1.6518-0.49107-1.6072-1.3839z" color="#000000"/>
    <path d="m197.18 977.22h2.8572v2.8571c0.0446 0.9375-0.77381 1.3839-1.25 1.3839-0.4762 0-1.6518-0.49107-1.6072-1.3839z" color="#000000"/>
    <path d="m200.08 977.22h2.8572v2.8571c0.0446 0.9375-0.77381 1.3839-1.25 1.3839-0.4762 0-1.6518-0.49107-1.6072-1.3839z" color="#000000"/>
    <path d="m202.94 977.22h2.8572v2.8571c0.0446 0.9375-0.77381 1.3839-1.25 1.3839-0.4762 0-1.6518-0.49107-1.6072-1.3839z" color="#000000"/>
   </g>
   <g transform="translate(-.63944 -19.743)">
    <path d="m153.87 977.22h2.8572v2.8571c0.0446 0.9375-0.77381 1.3839-1.25 1.3839-0.4762 0-1.6518-0.49107-1.6072-1.3839z" color="#000000"/>
    <path d="m156.78 977.22h2.8572v2.8571c0.0446 0.9375-0.77381 1.3839-1.25 1.3839-0.4762 0-1.6518-0.49107-1.6072-1.3839z" color="#000000"/>
    <path d="m159.63 977.22h2.8572v2.8571c0.0446 0.9375-0.77381 1.3839-1.25 1.3839-0.4762 0-1.6518-0.49107-1.6072-1.3839z" color="#000000"/>
    <path d="m162.57 977.22h2.8572v2.8571c0.0446 0.9375-0.77381 1.3839-1.25 1.3839-0.4762 0-1.6518-0.49107-1.6072-1.3839z" color="#000000"/>
    <path d="m165.47 977.22h2.8572v2.8571c0.0446 0.9375-0.77381 1.3839-1.25 1.3839-0.4762 0-1.6518-0.49107-1.6072-1.3839z" color="#000000"/>
    <path d="m168.33 977.22h2.8572v2.8571c0.0446 0.9375-0.77381 1.3839-1.25 1.3839-0.4762 0-1.6518-0.49107-1.6072-1.3839z" color="#000000"/>
    <path d="m171.17 977.22h2.8572v2.8571c0.0446 0.9375-0.77381 1.3839-1.25 1.3839-0.4762 0-1.6518-0.49107-1.6072-1.3839z" color="#000000"/>
    <path d="m174.07 977.22h2.8572v2.8571c0.0446 0.9375-0.77381 1.3839-1.25 1.3839-0.4762 0-1.6518-0.49107-1.6072-1.3839z" color="#000000"/>
    <path d="m176.93 977.22h2.8572v2.8571c0.0446 0.9375-0.77381 1.3839-1.25 1.3839-0.4762 0-1.6518-0.49107-1.6072-1.3839z" color="#000000"/>
    <path d="m179.86 977.22h2.8572v2.8571c0.0446 0.9375-0.77381 1.3839-1.25 1.3839-0.4762 0-1.6518-0.49107-1.6072-1.3839z" color="#000000"/>
    <path d="m182.76 977.22h2.8572v2.8571c0.0446 0.9375-0.77381 1.3839-1.25 1.3839-0.4762 0-1.6518-0.49107-1.6072-1.3839z" color="#000000"/>
    <path d="m185.62 977.22h2.8572v2.8571c0.0446 0.9375-0.77381 1.3839-1.25 1.3839-0.4762 0-1.6518-0.49107-1.6072-1.3839z" color="#000000"/>
    <path d="m188.49 977.22h2.8572v2.8571c0.0446 0.9375-0.77381 1.3839-1.25 1.3839-0.4762 0-1.6518-0.49107-1.6072-1.3839z" color="#000000"/>
    <path d="m191.39 977.22h2.8572v2.8571c0.0446 0.9375-0.77381 1.3839-1.25 1.3839-0.4762 0-1.6518-0.49107-1.6072-1.3839z" color="#000000"/>
    <path d="m194.25 977.22h2.8572v2.8571c0.0446 0.9375-0.77381 1.3839-1.25 1.3839-0.4762 0-1.6518-0.49107-1.6072-1.3839z" color="#000000"/>
    <path d="m197.18 977.22h2.8572v2.8571c0.0446 0.9375-0.77381 1.3839-1.25 1.3839-0.4762 0-1.6518-0.49107-1.6072-1.3839z" color="#000000"/>
    <path d="m200.08 977.22h2.8572v2.8571c0.0446 0.9375-0.77381 1.3839-1.25 1.3839-0.4762 0-1.6518-0.49107-1.6072-1.3839z" color="#000000"/>
    <path d="m202.94 977.22h2.8572v2.8571c0.0446 0.9375-0.77381 1.3839-1.25 1.3839-0.4762 0-1.6518-0.49107-1.6072-1.3839z" color="#000000"/>
   </g>
   <g transform="translate(-2.068 -21.975)">
    <path d="m153.87 977.22h2.8572v2.8571c0.0446 0.9375-0.77381 1.3839-1.25 1.3839-0.4762 0-1.6518-0.49107-1.6072-1.3839z" color="#000000"/>
    <path d="m156.78 977.22h2.8572v2.8571c0.0446 0.9375-0.77381 1.3839-1.25 1.3839-0.4762 0-1.6518-0.49107-1.6072-1.3839z" color="#000000"/>
    <path d="m159.63 977.22h2.8572v2.8571c0.0446 0.9375-0.77381 1.3839-1.25 1.3839-0.4762 0-1.6518-0.49107-1.6072-1.3839z" color="#000000"/>
    <path d="m162.57 977.22h2.8572v2.8571c0.0446 0.9375-0.77381 1.3839-1.25 1.3839-0.4762 0-1.6518-0.49107-1.6072-1.3839z" color="#000000"/>
    <path d="m165.47 977.22h2.8572v2.8571c0.0446 0.9375-0.77381 1.3839-1.25 1.3839-0.4762 0-1.6518-0.49107-1.6072-1.3839z" color="#000000"/>
    <path d="m168.33 977.22h2.8572v2.8571c0.0446 0.9375-0.77381 1.3839-1.25 1.3839-0.4762 0-1.6518-0.49107-1.6072-1.3839z" color="#000000"/>
    <path d="m171.17 977.22h2.8572v2.8571c0.0446 0.9375-0.77381 1.3839-1.25 1.3839-0.4762 0-1.6518-0.49107-1.6072-1.3839z" color="#000000"/>
    <path d="m174.07 977.22h2.8572v2.8571c0.0446 0.9375-0.77381 1.3839-1.25 1.3839-0.4762 0-1.6518-0.49107-1.6072-1.3839z" color="#000000"/>
    <path d="m176.93 977.22h2.8572v2.8571c0.0446 0.9375-0.77381 1.3839-1.25 1.3839-0.4762 0-1.6518-0.49107-1.6072-1.3839z" color="#000000"/>
    <path d="m179.86 977.22h2.8572v2.8571c0.0446 0.9375-0.77381 1.3839-1.25 1.3839-0.4762 0-1.6518-0.49107-1.6072-1.3839z" color="#000000"/>
    <path d="m182.76 977.22h2.8572v2.8571c0.0446 0.9375-0.77381 1.3839-1.25 1.3839-0.4762 0-1.6518-0.49107-1.6072-1.3839z" color="#000000"/>
    <path d="m185.62 977.22h2.8572v2.8571c0.0446 0.9375-0.77381 1.3839-1.25 1.3839-0.4762 0-1.6518-0.49107-1.6072-1.3839z" color="#000000"/>
    <path d="m188.49 977.22h2.8572v2.8571c0.0446 0.9375-0.77381 1.3839-1.25 1.3839-0.4762 0-1.6518-0.49107-1.6072-1.3839z" color="#000000"/>
    <path d="m191.39 977.22h2.8572v2.8571c0.0446 0.9375-0.77381 1.3839-1.25 1.3839-0.4762 0-1.6518-0.49107-1.6072-1.3839z" color="#000000"/>
    <path d="m194.25 977.22h2.8572v2.8571c0.0446 0.9375-0.77381 1.3839-1.25 1.3839-0.4762 0-1.6518-0.49107-1.6072-1.3839z" color="#000000"/>
    <path d="m197.18 977.22h2.8572v2.8571c0.0446 0.9375-0.77381 1.3839-1.25 1.3839-0.4762 0-1.6518-0.49107-1.6072-1.3839z" color="#000000"/>
    <path d="m200.08 977.22h2.8572v2.8571c0.0446 0.9375-0.77381 1.3839-1.25 1.3839-0.4762 0-1.6518-0.49107-1.6072-1.3839z" color="#000000"/>
    <path d="m202.94 977.22h2.8572v2.8571c0.0446 0.9375-0.77381 1.3839-1.25 1.3839-0.4762 0-1.6518-0.49107-1.6072-1.3839z" color="#000000"/>
   </g>
   <g transform="translate(-.37159 -24.208)">
    <path d="m153.87 977.22h2.8572v2.8571c0.0446 0.9375-0.77381 1.3839-1.25 1.3839-0.4762 0-1.6518-0.49107-1.6072-1.3839z" color="#000000"/>
    <path d="m156.78 977.22h2.8572v2.8571c0.0446 0.9375-0.77381 1.3839-1.25 1.3839-0.4762 0-1.6518-0.49107-1.6072-1.3839z" color="#000000"/>
    <path d="m159.63 977.22h2.8572v2.8571c0.0446 0.9375-0.77381 1.3839-1.25 1.3839-0.4762 0-1.6518-0.49107-1.6072-1.3839z" color="#000000"/>
    <path d="m162.57 977.22h2.8572v2.8571c0.0446 0.9375-0.77381 1.3839-1.25 1.3839-0.4762 0-1.6518-0.49107-1.6072-1.3839z" color="#000000"/>
    <path d="m165.47 977.22h2.8572v2.8571c0.0446 0.9375-0.77381 1.3839-1.25 1.3839-0.4762 0-1.6518-0.49107-1.6072-1.3839z" color="#000000"/>
    <path d="m168.33 977.22h2.8572v2.8571c0.0446 0.9375-0.77381 1.3839-1.25 1.3839-0.4762 0-1.6518-0.49107-1.6072-1.3839z" color="#000000"/>
    <path d="m171.17 977.22h2.8572v2.8571c0.0446 0.9375-0.77381 1.3839-1.25 1.3839-0.4762 0-1.6518-0.49107-1.6072-1.3839z" color="#000000"/>
    <path d="m174.07 977.22h2.8572v2.8571c0.0446 0.9375-0.77381 1.3839-1.25 1.3839-0.4762 0-1.6518-0.49107-1.6072-1.3839z" color="#000000"/>
    <path d="m176.93 977.22h2.8572v2.8571c0.0446 0.9375-0.77381 1.3839-1.25 1.3839-0.4762 0-1.6518-0.49107-1.6072-1.3839z" color="#000000"/>
    <path d="m179.86 977.22h2.8572v2.8571c0.0446 0.9375-0.77381 1.3839-1.25 1.3839-0.4762 0-1.6518-0.49107-1.6072-1.3839z" color="#000000"/>
    <path d="m182.76 977.22h2.8572v2.8571c0.0446 0.9375-0.77381 1.3839-1.25 1.3839-0.4762 0-1.6518-0.49107-1.6072-1.3839z" color="#000000"/>
    <path d="m185.62 977.22h2.8572v2.8571c0.0446 0.9375-0.77381 1.3839-1.25 1.3839-0.4762 0-1.6518-0.49107-1.6072-1.3839z" color="#000000"/>
    <path d="m188.49 977.22h2.8572v2.8571c0.0446 0.9375-0.77381 1.3839-1.25 1.3839-0.4762 0-1.6518-0.49107-1.6072-1.3839z" color="#000000"/>
    <path d="m191.39 977.22h2.8572v2.8571c0.0446 0.9375-0.77381 1.3839-1.25 1.3839-0.4762 0-1.6518-0.49107-1.6072-1.3839z" color="#000000"/>
    <path d="m194.25 977.22h2.8572v2.8571c0.0446 0.9375-0.77381 1.3839-1.25 1.3839-0.4762 0-1.6518-0.49107-1.6072-1.3839z" color="#000000"/>
    <path d="m197.18 977.22h2.8572v2.8571c0.0446 0.9375-0.77381 1.3839-1.25 1.3839-0.4762 0-1.6518-0.49107-1.6072-1.3839z" color="#000000"/>
    <path d="m200.08 977.22h2.8572v2.8571c0.0446 0.9375-0.77381 1.3839-1.25 1.3839-0.4762 0-1.6518-0.49107-1.6072-1.3839z" color="#000000"/>
    <path d="m202.94 977.22h2.8572v2.8571c0.0446 0.9375-0.77381 1.3839-1.25 1.3839-0.4762 0-1.6518-0.49107-1.6072-1.3839z" color="#000000"/>
   </g>
   <g transform="translate(-1.8894 -26.44)">
    <path d="m153.87 977.22h2.8572v2.8571c0.0446 0.9375-0.77381 1.3839-1.25 1.3839-0.4762 0-1.6518-0.49107-1.6072-1.3839z" color="#000000"/>
    <path d="m156.78 977.22h2.8572v2.8571c0.0446 0.9375-0.77381 1.3839-1.25 1.3839-0.4762 0-1.6518-0.49107-1.6072-1.3839z" color="#000000"/>
    <path d="m159.63 977.22h2.8572v2.8571c0.0446 0.9375-0.77381 1.3839-1.25 1.3839-0.4762 0-1.6518-0.49107-1.6072-1.3839z" color="#000000"/>
    <path d="m162.57 977.22h2.8572v2.8571c0.0446 0.9375-0.77381 1.3839-1.25 1.3839-0.4762 0-1.6518-0.49107-1.6072-1.3839z" color="#000000"/>
    <path d="m165.47 977.22h2.8572v2.8571c0.0446 0.9375-0.77381 1.3839-1.25 1.3839-0.4762 0-1.6518-0.49107-1.6072-1.3839z" color="#000000"/>
    <path d="m168.33 977.22h2.8572v2.8571c0.0446 0.9375-0.77381 1.3839-1.25 1.3839-0.4762 0-1.6518-0.49107-1.6072-1.3839z" color="#000000"/>
    <path d="m171.17 977.22h2.8572v2.8571c0.0446 0.9375-0.77381 1.3839-1.25 1.3839-0.4762 0-1.6518-0.49107-1.6072-1.3839z" color="#000000"/>
    <path d="m174.07 977.22h2.8572v2.8571c0.0446 0.9375-0.77381 1.3839-1.25 1.3839-0.4762 0-1.6518-0.49107-1.6072-1.3839z" color="#000000"/>
    <path d="m176.93 977.22h2.8572v2.8571c0.0446 0.9375-0.77381 1.3839-1.25 1.3839-0.4762 0-1.6518-0.49107-1.6072-1.3839z" color="#000000"/>
    <path d="m179.86 977.22h2.8572v2.8571c0.0446 0.9375-0.77381 1.3839-1.25 1.3839-0.4762 0-1.6518-0.49107-1.6072-1.3839z" color="#000000"/>
    <path d="m182.76 977.22h2.8572v2.8571c0.0446 0.9375-0.77381 1.3839-1.25 1.3839-0.4762 0-1.6518-0.49107-1.6072-1.3839z" color="#000000"/>
    <path d="m185.62 977.22h2.8572v2.8571c0.0446 0.9375-0.77381 1.3839-1.25 1.3839-0.4762 0-1.6518-0.49107-1.6072-1.3839z" color="#000000"/>
    <path d="m188.49 977.22h2.8572v2.8571c0.0446 0.9375-0.77381 1.3839-1.25 1.3839-0.4762 0-1.6518-0.49107-1.6072-1.3839z" color="#000000"/>
    <path d="m191.39 977.22h2.8572v2.8571c0.0446 0.9375-0.77381 1.3839-1.25 1.3839-0.4762 0-1.6518-0.49107-1.6072-1.3839z" color="#000000"/>
    <path d="m194.25 977.22h2.8572v2.8571c0.0446 0.9375-0.77381 1.3839-1.25 1.3839-0.4762 0-1.6518-0.49107-1.6072-1.3839z" color="#000000"/>
    <path d="m197.18 977.22h2.8572v2.8571c0.0446 0.9375-0.77381 1.3839-1.25 1.3839-0.4762 0-1.6518-0.49107-1.6072-1.3839z" color="#000000"/>
    <path d="m200.08 977.22h2.8572v2.8571c0.0446 0.9375-0.77381 1.3839-1.25 1.3839-0.4762 0-1.6518-0.49107-1.6072-1.3839z" color="#000000"/>
    <path d="m202.94 977.22h2.8572v2.8571c0.0446 0.9375-0.77381 1.3839-1.25 1.3839-0.4762 0-1.6518-0.49107-1.6072-1.3839z" color="#000000"/>
   </g>
   <g transform="translate(-.46087 -28.493)">
    <path d="m153.87 977.22h2.8572v2.8571c0.0446 0.9375-0.77381 1.3839-1.25 1.3839-0.4762 0-1.6518-0.49107-1.6072-1.3839z" color="#000000"/>
    <path d="m156.78 977.22h2.8572v2.8571c0.0446 0.9375-0.77381 1.3839-1.25 1.3839-0.4762 0-1.6518-0.49107-1.6072-1.3839z" color="#000000"/>
    <path d="m159.63 977.22h2.8572v2.8571c0.0446 0.9375-0.77381 1.3839-1.25 1.3839-0.4762 0-1.6518-0.49107-1.6072-1.3839z" color="#000000"/>
    <path d="m162.57 977.22h2.8572v2.8571c0.0446 0.9375-0.77381 1.3839-1.25 1.3839-0.4762 0-1.6518-0.49107-1.6072-1.3839z" color="#000000"/>
    <path d="m165.47 977.22h2.8572v2.8571c0.0446 0.9375-0.77381 1.3839-1.25 1.3839-0.4762 0-1.6518-0.49107-1.6072-1.3839z" color="#000000"/>
    <path d="m168.33 977.22h2.8572v2.8571c0.0446 0.9375-0.77381 1.3839-1.25 1.3839-0.4762 0-1.6518-0.49107-1.6072-1.3839z" color="#000000"/>
    <path d="m171.17 977.22h2.8572v2.8571c0.0446 0.9375-0.77381 1.3839-1.25 1.3839-0.4762 0-1.6518-0.49107-1.6072-1.3839z" color="#000000"/>
    <path d="m174.07 977.22h2.8572v2.8571c0.0446 0.9375-0.77381 1.3839-1.25 1.3839-0.4762 0-1.6518-0.49107-1.6072-1.3839z" color="#000000"/>
    <path d="m176.93 977.22h2.8572v2.8571c0.0446 0.9375-0.77381 1.3839-1.25 1.3839-0.4762 0-1.6518-0.49107-1.6072-1.3839z" color="#000000"/>
    <path d="m179.86 977.22h2.8572v2.8571c0.0446 0.9375-0.77381 1.3839-1.25 1.3839-0.4762 0-1.6518-0.49107-1.6072-1.3839z" color="#000000"/>
    <path d="m182.76 977.22h2.8572v2.8571c0.0446 0.9375-0.77381 1.3839-1.25 1.3839-0.4762 0-1.6518-0.49107-1.6072-1.3839z" color="#000000"/>
    <path d="m185.62 977.22h2.8572v2.8571c0.0446 0.9375-0.77381 1.3839-1.25 1.3839-0.4762 0-1.6518-0.49107-1.6072-1.3839z" color="#000000"/>
    <path d="m188.49 977.22h2.8572v2.8571c0.0446 0.9375-0.77381 1.3839-1.25 1.3839-0.4762 0-1.6518-0.49107-1.6072-1.3839z" color="#000000"/>
    <path d="m191.39 977.22h2.8572v2.8571c0.0446 0.9375-0.77381 1.3839-1.25 1.3839-0.4762 0-1.6518-0.49107-1.6072-1.3839z" color="#000000"/>
    <path d="m194.25 977.22h2.8572v2.8571c0.0446 0.9375-0.77381 1.3839-1.25 1.3839-0.4762 0-1.6518-0.49107-1.6072-1.3839z" color="#000000"/>
    <path d="m197.18 977.22h2.8572v2.8571c0.0446 0.9375-0.77381 1.3839-1.25 1.3839-0.4762 0-1.6518-0.49107-1.6072-1.3839z" color="#000000"/>
    <path d="m200.08 977.22h2.8572v2.8571c0.0446 0.9375-0.77381 1.3839-1.25 1.3839-0.4762 0-1.6518-0.49107-1.6072-1.3839z" color="#000000"/>
    <path d="m202.94 977.22h2.8572v2.8571c0.0446 0.9375-0.77381 1.3839-1.25 1.3839-0.4762 0-1.6518-0.49107-1.6072-1.3839z" color="#000000"/>
   </g>
   <g transform="translate(-2.0089 -30.675)">
    <path d="m153.87 977.22h2.8572v2.8571c0.0446 0.9375-0.77381 1.3839-1.25 1.3839-0.4762 0-1.6518-0.49107-1.6072-1.3839z" color="#000000"/>
    <path d="m156.78 977.22h2.8572v2.8571c0.0446 0.9375-0.77381 1.3839-1.25 1.3839-0.4762 0-1.6518-0.49107-1.6072-1.3839z" color="#000000"/>
    <path d="m159.63 977.22h2.8572v2.8571c0.0446 0.9375-0.77381 1.3839-1.25 1.3839-0.4762 0-1.6518-0.49107-1.6072-1.3839z" color="#000000"/>
    <path d="m162.57 977.22h2.8572v2.8571c0.0446 0.9375-0.77381 1.3839-1.25 1.3839-0.4762 0-1.6518-0.49107-1.6072-1.3839z" color="#000000"/>
    <path d="m165.47 977.22h2.8572v2.8571c0.0446 0.9375-0.77381 1.3839-1.25 1.3839-0.4762 0-1.6518-0.49107-1.6072-1.3839z" color="#000000"/>
    <path d="m168.33 977.22h2.8572v2.8571c0.0446 0.9375-0.77381 1.3839-1.25 1.3839-0.4762 0-1.6518-0.49107-1.6072-1.3839z" color="#000000"/>
    <path d="m171.17 977.22h2.8572v2.8571c0.0446 0.9375-0.77381 1.3839-1.25 1.3839-0.4762 0-1.6518-0.49107-1.6072-1.3839z" color="#000000"/>
    <path d="m174.07 977.22h2.8572v2.8571c0.0446 0.9375-0.77381 1.3839-1.25 1.3839-0.4762 0-1.6518-0.49107-1.6072-1.3839z" color="#000000"/>
    <path d="m176.93 977.22h2.8572v2.8571c0.0446 0.9375-0.77381 1.3839-1.25 1.3839-0.4762 0-1.6518-0.49107-1.6072-1.3839z" color="#000000"/>
    <path d="m179.86 977.22h2.8572v2.8571c0.0446 0.9375-0.77381 1.3839-1.25 1.3839-0.4762 0-1.6518-0.49107-1.6072-1.3839z" color="#000000"/>
    <path d="m182.76 977.22h2.8572v2.8571c0.0446 0.9375-0.77381 1.3839-1.25 1.3839-0.4762 0-1.6518-0.49107-1.6072-1.3839z" color="#000000"/>
    <path d="m185.62 977.22h2.8572v2.8571c0.0446 0.9375-0.77381 1.3839-1.25 1.3839-0.4762 0-1.6518-0.49107-1.6072-1.3839z" color="#000000"/>
    <path d="m188.49 977.22h2.8572v2.8571c0.0446 0.9375-0.77381 1.3839-1.25 1.3839-0.4762 0-1.6518-0.49107-1.6072-1.3839z" color="#000000"/>
    <path d="m191.39 977.22h2.8572v2.8571c0.0446 0.9375-0.77381 1.3839-1.25 1.3839-0.4762 0-1.6518-0.49107-1.6072-1.3839z" color="#000000"/>
    <path d="m194.25 977.22h2.8572v2.8571c0.0446 0.9375-0.77381 1.3839-1.25 1.3839-0.4762 0-1.6518-0.49107-1.6072-1.3839z" color="#000000"/>
    <path d="m197.18 977.22h2.8572v2.8571c0.0446 0.9375-0.77381 1.3839-1.25 1.3839-0.4762 0-1.6518-0.49107-1.6072-1.3839z" color="#000000"/>
    <path d="m200.08 977.22h2.8572v2.8571c0.0446 0.9375-0.77381 1.3839-1.25 1.3839-0.4762 0-1.6518-0.49107-1.6072-1.3839z" color="#000000"/>
    <path d="m202.94 977.22h2.8572v2.8571c0.0446 0.9375-0.77381 1.3839-1.25 1.3839-0.4762 0-1.6518-0.49107-1.6072-1.3839z" color="#000000"/>
   </g>
   <g transform="translate(-.5948 -32.561)">
    <path d="m153.87 977.22h2.8572v2.8571c0.0446 0.9375-0.77381 1.3839-1.25 1.3839-0.4762 0-1.6518-0.49107-1.6072-1.3839z" color="#000000"/>
    <path d="m156.78 977.22h2.8572v2.8571c0.0446 0.9375-0.77381 1.3839-1.25 1.3839-0.4762 0-1.6518-0.49107-1.6072-1.3839z" color="#000000"/>
    <path d="m159.63 977.22h2.8572v2.8571c0.0446 0.9375-0.77381 1.3839-1.25 1.3839-0.4762 0-1.6518-0.49107-1.6072-1.3839z" color="#000000"/>
    <path d="m162.57 977.22h2.8572v2.8571c0.0446 0.9375-0.77381 1.3839-1.25 1.3839-0.4762 0-1.6518-0.49107-1.6072-1.3839z" color="#000000"/>
    <path d="m165.47 977.22h2.8572v2.8571c0.0446 0.9375-0.77381 1.3839-1.25 1.3839-0.4762 0-1.6518-0.49107-1.6072-1.3839z" color="#000000"/>
    <path d="m168.33 977.22h2.8572v2.8571c0.0446 0.9375-0.77381 1.3839-1.25 1.3839-0.4762 0-1.6518-0.49107-1.6072-1.3839z" color="#000000"/>
    <path d="m171.17 977.22h2.8572v2.8571c0.0446 0.9375-0.77381 1.3839-1.25 1.3839-0.4762 0-1.6518-0.49107-1.6072-1.3839z" color="#000000"/>
    <path d="m174.07 977.22h2.8572v2.8571c0.0446 0.9375-0.77381 1.3839-1.25 1.3839-0.4762 0-1.6518-0.49107-1.6072-1.3839z" color="#000000"/>
    <path d="m176.93 977.22h2.8572v2.8571c0.0446 0.9375-0.77381 1.3839-1.25 1.3839-0.4762 0-1.6518-0.49107-1.6072-1.3839z" color="#000000"/>
    <path d="m179.86 977.22h2.8572v2.8571c0.0446 0.9375-0.77381 1.3839-1.25 1.3839-0.4762 0-1.6518-0.49107-1.6072-1.3839z" color="#000000"/>
    <path d="m182.76 977.22h2.8572v2.8571c0.0446 0.9375-0.77381 1.3839-1.25 1.3839-0.4762 0-1.6518-0.49107-1.6072-1.3839z" color="#000000"/>
    <path d="m185.62 977.22h2.8572v2.8571c0.0446 0.9375-0.77381 1.3839-1.25 1.3839-0.4762 0-1.6518-0.49107-1.6072-1.3839z" color="#000000"/>
    <path d="m188.49 977.22h2.8572v2.8571c0.0446 0.9375-0.77381 1.3839-1.25 1.3839-0.4762 0-1.6518-0.49107-1.6072-1.3839z" color="#000000"/>
    <path d="m191.39 977.22h2.8572v2.8571c0.0446 0.9375-0.77381 1.3839-1.25 1.3839-0.4762 0-1.6518-0.49107-1.6072-1.3839z" color="#000000"/>
    <path d="m194.25 977.22h2.8572v2.8571c0.0446 0.9375-0.77381 1.3839-1.25 1.3839-0.4762 0-1.6518-0.49107-1.6072-1.3839z" color="#000000"/>
    <path d="m197.18 977.22h2.8572v2.8571c0.0446 0.9375-0.77381 1.3839-1.25 1.3839-0.4762 0-1.6518-0.49107-1.6072-1.3839z" color="#000000"/>
    <path d="m200.08 977.22h2.8572v2.8571c0.0446 0.9375-0.77381 1.3839-1.25 1.3839-0.4762 0-1.6518-0.49107-1.6072-1.3839z" color="#000000"/>
    <path d="m202.94 977.22h2.8572v2.8571c0.0446 0.9375-0.77381 1.3839-1.25 1.3839-0.4762 0-1.6518-0.49107-1.6072-1.3839z" color="#000000"/>
   </g>
   <g transform="translate(-2.0234 -34.794)">
    <path d="m153.87 977.22h2.8572v2.8571c0.0446 0.9375-0.77381 1.3839-1.25 1.3839-0.4762 0-1.6518-0.49107-1.6072-1.3839z" color="#000000"/>
    <path d="m156.78 977.22h2.8572v2.8571c0.0446 0.9375-0.77381 1.3839-1.25 1.3839-0.4762 0-1.6518-0.49107-1.6072-1.3839z" color="#000000"/>
    <path d="m159.63 977.22h2.8572v2.8571c0.0446 0.9375-0.77381 1.3839-1.25 1.3839-0.4762 0-1.6518-0.49107-1.6072-1.3839z" color="#000000"/>
    <path d="m162.57 977.22h2.8572v2.8571c0.0446 0.9375-0.77381 1.3839-1.25 1.3839-0.4762 0-1.6518-0.49107-1.6072-1.3839z" color="#000000"/>
    <path d="m165.47 977.22h2.8572v2.8571c0.0446 0.9375-0.77381 1.3839-1.25 1.3839-0.4762 0-1.6518-0.49107-1.6072-1.3839z" color="#000000"/>
    <path d="m168.33 977.22h2.8572v2.8571c0.0446 0.9375-0.77381 1.3839-1.25 1.3839-0.4762 0-1.6518-0.49107-1.6072-1.3839z" color="#000000"/>
    <path d="m171.17 977.22h2.8572v2.8571c0.0446 0.9375-0.77381 1.3839-1.25 1.3839-0.4762 0-1.6518-0.49107-1.6072-1.3839z" color="#000000"/>
    <path d="m174.07 977.22h2.8572v2.8571c0.0446 0.9375-0.77381 1.3839-1.25 1.3839-0.4762 0-1.6518-0.49107-1.6072-1.3839z" color="#000000"/>
    <path d="m176.93 977.22h2.8572v2.8571c0.0446 0.9375-0.77381 1.3839-1.25 1.3839-0.4762 0-1.6518-0.49107-1.6072-1.3839z" color="#000000"/>
    <path d="m179.86 977.22h2.8572v2.8571c0.0446 0.9375-0.77381 1.3839-1.25 1.3839-0.4762 0-1.6518-0.49107-1.6072-1.3839z" color="#000000"/>
    <path d="m182.76 977.22h2.8572v2.8571c0.0446 0.9375-0.77381 1.3839-1.25 1.3839-0.4762 0-1.6518-0.49107-1.6072-1.3839z" color="#000000"/>
    <path d="m185.62 977.22h2.8572v2.8571c0.0446 0.9375-0.77381 1.3839-1.25 1.3839-0.4762 0-1.6518-0.49107-1.6072-1.3839z" color="#000000"/>
    <path d="m188.49 977.22h2.8572v2.8571c0.0446 0.9375-0.77381 1.3839-1.25 1.3839-0.4762 0-1.6518-0.49107-1.6072-1.3839z" color="#000000"/>
    <path d="m191.39 977.22h2.8572v2.8571c0.0446 0.9375-0.77381 1.3839-1.25 1.3839-0.4762 0-1.6518-0.49107-1.6072-1.3839z" color="#000000"/>
    <path d="m194.25 977.22h2.8572v2.8571c0.0446 0.9375-0.77381 1.3839-1.25 1.3839-0.4762 0-1.6518-0.49107-1.6072-1.3839z" color="#000000"/>
    <path d="m197.18 977.22h2.8572v2.8571c0.0446 0.9375-0.77381 1.3839-1.25 1.3839-0.4762 0-1.6518-0.49107-1.6072-1.3839z" color="#000000"/>
    <path d="m200.08 977.22h2.8572v2.8571c0.0446 0.9375-0.77381 1.3839-1.25 1.3839-0.4762 0-1.6518-0.49107-1.6072-1.3839z" color="#000000"/>
    <path d="m202.94 977.22h2.8572v2.8571c0.0446 0.9375-0.77381 1.3839-1.25 1.3839-0.4762 0-1.6518-0.49107-1.6072-1.3839z" color="#000000"/>
   </g>
   <g transform="translate(-.32694 -37.026)">
    <path d="m153.87 977.22h2.8572v2.8571c0.0446 0.9375-0.77381 1.3839-1.25 1.3839-0.4762 0-1.6518-0.49107-1.6072-1.3839z" color="#000000"/>
    <path d="m156.78 977.22h2.8572v2.8571c0.0446 0.9375-0.77381 1.3839-1.25 1.3839-0.4762 0-1.6518-0.49107-1.6072-1.3839z" color="#000000"/>
    <path d="m159.63 977.22h2.8572v2.8571c0.0446 0.9375-0.77381 1.3839-1.25 1.3839-0.4762 0-1.6518-0.49107-1.6072-1.3839z" color="#000000"/>
    <path d="m162.57 977.22h2.8572v2.8571c0.0446 0.9375-0.77381 1.3839-1.25 1.3839-0.4762 0-1.6518-0.49107-1.6072-1.3839z" color="#000000"/>
    <path d="m165.47 977.22h2.8572v2.8571c0.0446 0.9375-0.77381 1.3839-1.25 1.3839-0.4762 0-1.6518-0.49107-1.6072-1.3839z" color="#000000"/>
    <path d="m168.33 977.22h2.8572v2.8571c0.0446 0.9375-0.77381 1.3839-1.25 1.3839-0.4762 0-1.6518-0.49107-1.6072-1.3839z" color="#000000"/>
    <path d="m171.17 977.22h2.8572v2.8571c0.0446 0.9375-0.77381 1.3839-1.25 1.3839-0.4762 0-1.6518-0.49107-1.6072-1.3839z" color="#000000"/>
    <path d="m174.07 977.22h2.8572v2.8571c0.0446 0.9375-0.77381 1.3839-1.25 1.3839-0.4762 0-1.6518-0.49107-1.6072-1.3839z" color="#000000"/>
    <path d="m176.93 977.22h2.8572v2.8571c0.0446 0.9375-0.77381 1.3839-1.25 1.3839-0.4762 0-1.6518-0.49107-1.6072-1.3839z" color="#000000"/>
    <path d="m179.86 977.22h2.8572v2.8571c0.0446 0.9375-0.77381 1.3839-1.25 1.3839-0.4762 0-1.6518-0.49107-1.6072-1.3839z" color="#000000"/>
    <path d="m182.76 977.22h2.8572v2.8571c0.0446 0.9375-0.77381 1.3839-1.25 1.3839-0.4762 0-1.6518-0.49107-1.6072-1.3839z" color="#000000"/>
    <path d="m185.62 977.22h2.8572v2.8571c0.0446 0.9375-0.77381 1.3839-1.25 1.3839-0.4762 0-1.6518-0.49107-1.6072-1.3839z" color="#000000"/>
    <path d="m188.49 977.22h2.8572v2.8571c0.0446 0.9375-0.77381 1.3839-1.25 1.3839-0.4762 0-1.6518-0.49107-1.6072-1.3839z" color="#000000"/>
    <path d="m191.39 977.22h2.8572v2.8571c0.0446 0.9375-0.77381 1.3839-1.25 1.3839-0.4762 0-1.6518-0.49107-1.6072-1.3839z" color="#000000"/>
    <path d="m194.25 977.22h2.8572v2.8571c0.0446 0.9375-0.77381 1.3839-1.25 1.3839-0.4762 0-1.6518-0.49107-1.6072-1.3839z" color="#000000"/>
    <path d="m197.18 977.22h2.8572v2.8571c0.0446 0.9375-0.77381 1.3839-1.25 1.3839-0.4762 0-1.6518-0.49107-1.6072-1.3839z" color="#000000"/>
    <path d="m200.08 977.22h2.8572v2.8571c0.0446 0.9375-0.77381 1.3839-1.25 1.3839-0.4762 0-1.6518-0.49107-1.6072-1.3839z" color="#000000"/>
    <path d="m202.94 977.22h2.8572v2.8571c0.0446 0.9375-0.77381 1.3839-1.25 1.3839-0.4762 0-1.6518-0.49107-1.6072-1.3839z" color="#000000"/>
   </g>
   <g transform="translate(-1.8448 -39.258)">
    <path d="m153.87 977.22h2.8572v2.8571c0.0446 0.9375-0.77381 1.3839-1.25 1.3839-0.4762 0-1.6518-0.49107-1.6072-1.3839z" color="#000000"/>
    <path d="m156.78 977.22h2.8572v2.8571c0.0446 0.9375-0.77381 1.3839-1.25 1.3839-0.4762 0-1.6518-0.49107-1.6072-1.3839z" color="#000000"/>
    <path d="m159.63 977.22h2.8572v2.8571c0.0446 0.9375-0.77381 1.3839-1.25 1.3839-0.4762 0-1.6518-0.49107-1.6072-1.3839z" color="#000000"/>
    <path d="m162.57 977.22h2.8572v2.8571c0.0446 0.9375-0.77381 1.3839-1.25 1.3839-0.4762 0-1.6518-0.49107-1.6072-1.3839z" color="#000000"/>
    <path d="m165.47 977.22h2.8572v2.8571c0.0446 0.9375-0.77381 1.3839-1.25 1.3839-0.4762 0-1.6518-0.49107-1.6072-1.3839z" color="#000000"/>
    <path d="m168.33 977.22h2.8572v2.8571c0.0446 0.9375-0.77381 1.3839-1.25 1.3839-0.4762 0-1.6518-0.49107-1.6072-1.3839z" color="#000000"/>
    <path d="m171.17 977.22h2.8572v2.8571c0.0446 0.9375-0.77381 1.3839-1.25 1.3839-0.4762 0-1.6518-0.49107-1.6072-1.3839z" color="#000000"/>
    <path d="m174.07 977.22h2.8572v2.8571c0.0446 0.9375-0.77381 1.3839-1.25 1.3839-0.4762 0-1.6518-0.49107-1.6072-1.3839z" color="#000000"/>
    <path d="m176.93 977.22h2.8572v2.8571c0.0446 0.9375-0.77381 1.3839-1.25 1.3839-0.4762 0-1.6518-0.49107-1.6072-1.3839z" color="#000000"/>
    <path d="m179.86 977.22h2.8572v2.8571c0.0446 0.9375-0.77381 1.3839-1.25 1.3839-0.4762 0-1.6518-0.49107-1.6072-1.3839z" color="#000000"/>
    <path d="m182.76 977.22h2.8572v2.8571c0.0446 0.9375-0.77381 1.3839-1.25 1.3839-0.4762 0-1.6518-0.49107-1.6072-1.3839z" color="#000000"/>
    <path d="m185.62 977.22h2.8572v2.8571c0.0446 0.9375-0.77381 1.3839-1.25 1.3839-0.4762 0-1.6518-0.49107-1.6072-1.3839z" color="#000000"/>
    <path d="m188.49 977.22h2.8572v2.8571c0.0446 0.9375-0.77381 1.3839-1.25 1.3839-0.4762 0-1.6518-0.49107-1.6072-1.3839z" color="#000000"/>
    <path d="m191.39 977.22h2.8572v2.8571c0.0446 0.9375-0.77381 1.3839-1.25 1.3839-0.4762 0-1.6518-0.49107-1.6072-1.3839z" color="#000000"/>
    <path d="m194.25 977.22h2.8572v2.8571c0.0446 0.9375-0.77381 1.3839-1.25 1.3839-0.4762 0-1.6518-0.49107-1.6072-1.3839z" color="#000000"/>
    <path d="m197.18 977.22h2.8572v2.8571c0.0446 0.9375-0.77381 1.3839-1.25 1.3839-0.4762 0-1.6518-0.49107-1.6072-1.3839z" color="#000000"/>
    <path d="m200.08 977.22h2.8572v2.8571c0.0446 0.9375-0.77381 1.3839-1.25 1.3839-0.4762 0-1.6518-0.49107-1.6072-1.3839z" color="#000000"/>
    <path d="m202.94 977.22h2.8572v2.8571c0.0446 0.9375-0.77381 1.3839-1.25 1.3839-0.4762 0-1.6518-0.49107-1.6072-1.3839z" color="#000000"/>
   </g>
   <g transform="translate(-.41622 -41.311)">
    <path d="m153.87 977.22h2.8572v2.8571c0.0446 0.9375-0.77381 1.3839-1.25 1.3839-0.4762 0-1.6518-0.49107-1.6072-1.3839z" color="#000000"/>
    <path d="m156.78 977.22h2.8572v2.8571c0.0446 0.9375-0.77381 1.3839-1.25 1.3839-0.4762 0-1.6518-0.49107-1.6072-1.3839z" color="#000000"/>
    <path d="m159.63 977.22h2.8572v2.8571c0.0446 0.9375-0.77381 1.3839-1.25 1.3839-0.4762 0-1.6518-0.49107-1.6072-1.3839z" color="#000000"/>
    <path d="m162.57 977.22h2.8572v2.8571c0.0446 0.9375-0.77381 1.3839-1.25 1.3839-0.4762 0-1.6518-0.49107-1.6072-1.3839z" color="#000000"/>
    <path d="m165.47 977.22h2.8572v2.8571c0.0446 0.9375-0.77381 1.3839-1.25 1.3839-0.4762 0-1.6518-0.49107-1.6072-1.3839z" color="#000000"/>
    <path d="m168.33 977.22h2.8572v2.8571c0.0446 0.9375-0.77381 1.3839-1.25 1.3839-0.4762 0-1.6518-0.49107-1.6072-1.3839z" color="#000000"/>
    <path d="m171.17 977.22h2.8572v2.8571c0.0446 0.9375-0.77381 1.3839-1.25 1.3839-0.4762 0-1.6518-0.49107-1.6072-1.3839z" color="#000000"/>
    <path d="m174.07 977.22h2.8572v2.8571c0.0446 0.9375-0.77381 1.3839-1.25 1.3839-0.4762 0-1.6518-0.49107-1.6072-1.3839z" color="#000000"/>
    <path d="m176.93 977.22h2.8572v2.8571c0.0446 0.9375-0.77381 1.3839-1.25 1.3839-0.4762 0-1.6518-0.49107-1.6072-1.3839z" color="#000000"/>
    <path d="m179.86 977.22h2.8572v2.8571c0.0446 0.9375-0.77381 1.3839-1.25 1.3839-0.4762 0-1.6518-0.49107-1.6072-1.3839z" color="#000000"/>
    <path d="m182.76 977.22h2.8572v2.8571c0.0446 0.9375-0.77381 1.3839-1.25 1.3839-0.4762 0-1.6518-0.49107-1.6072-1.3839z" color="#000000"/>
    <path d="m185.62 977.22h2.8572v2.8571c0.0446 0.9375-0.77381 1.3839-1.25 1.3839-0.4762 0-1.6518-0.49107-1.6072-1.3839z" color="#000000"/>
    <path d="m188.49 977.22h2.8572v2.8571c0.0446 0.9375-0.77381 1.3839-1.25 1.3839-0.4762 0-1.6518-0.49107-1.6072-1.3839z" color="#000000"/>
    <path d="m191.39 977.22h2.8572v2.8571c0.0446 0.9375-0.77381 1.3839-1.25 1.3839-0.4762 0-1.6518-0.49107-1.6072-1.3839z" color="#000000"/>
    <path d="m194.25 977.22h2.8572v2.8571c0.0446 0.9375-0.77381 1.3839-1.25 1.3839-0.4762 0-1.6518-0.49107-1.6072-1.3839z" color="#000000"/>
    <path d="m197.18 977.22h2.8572v2.8571c0.0446 0.9375-0.77381 1.3839-1.25 1.3839-0.4762 0-1.6518-0.49107-1.6072-1.3839z" color="#000000"/>
    <path d="m200.08 977.22h2.8572v2.8571c0.0446 0.9375-0.77381 1.3839-1.25 1.3839-0.4762 0-1.6518-0.49107-1.6072-1.3839z" color="#000000"/>
    <path d="m202.94 977.22h2.8572v2.8571c0.0446 0.9375-0.77381 1.3839-1.25 1.3839-0.4762 0-1.6518-0.49107-1.6072-1.3839z" color="#000000"/>
   </g>
   <g transform="translate(-2.0982 -43.175)">
    <path d="m153.87 977.22h2.8572v2.8571c0.0446 0.9375-0.77381 1.3839-1.25 1.3839-0.4762 0-1.6518-0.49107-1.6072-1.3839z" color="#000000"/>
    <path d="m156.78 977.22h2.8572v2.8571c0.0446 0.9375-0.77381 1.3839-1.25 1.3839-0.4762 0-1.6518-0.49107-1.6072-1.3839z" color="#000000"/>
    <path d="m159.63 977.22h2.8572v2.8571c0.0446 0.9375-0.77381 1.3839-1.25 1.3839-0.4762 0-1.6518-0.49107-1.6072-1.3839z" color="#000000"/>
    <path d="m162.57 977.22h2.8572v2.8571c0.0446 0.9375-0.77381 1.3839-1.25 1.3839-0.4762 0-1.6518-0.49107-1.6072-1.3839z" color="#000000"/>
    <path d="m165.47 977.22h2.8572v2.8571c0.0446 0.9375-0.77381 1.3839-1.25 1.3839-0.4762 0-1.6518-0.49107-1.6072-1.3839z" color="#000000"/>
    <path d="m168.33 977.22h2.8572v2.8571c0.0446 0.9375-0.77381 1.3839-1.25 1.3839-0.4762 0-1.6518-0.49107-1.6072-1.3839z" color="#000000"/>
    <path d="m171.17 977.22h2.8572v2.8571c0.0446 0.9375-0.77381 1.3839-1.25 1.3839-0.4762 0-1.6518-0.49107-1.6072-1.3839z" color="#000000"/>
    <path d="m174.07 977.22h2.8572v2.8571c0.0446 0.9375-0.77381 1.3839-1.25 1.3839-0.4762 0-1.6518-0.49107-1.6072-1.3839z" color="#000000"/>
    <path d="m176.93 977.22h2.8572v2.8571c0.0446 0.9375-0.77381 1.3839-1.25 1.3839-0.4762 0-1.6518-0.49107-1.6072-1.3839z" color="#000000"/>
    <path d="m179.86 977.22h2.8572v2.8571c0.0446 0.9375-0.77381 1.3839-1.25 1.3839-0.4762 0-1.6518-0.49107-1.6072-1.3839z" color="#000000"/>
    <path d="m182.76 977.22h2.8572v2.8571c0.0446 0.9375-0.77381 1.3839-1.25 1.3839-0.4762 0-1.6518-0.49107-1.6072-1.3839z" color="#000000"/>
    <path d="m185.62 977.22h2.8572v2.8571c0.0446 0.9375-0.77381 1.3839-1.25 1.3839-0.4762 0-1.6518-0.49107-1.6072-1.3839z" color="#000000"/>
    <path d="m188.49 977.22h2.8572v2.8571c0.0446 0.9375-0.77381 1.3839-1.25 1.3839-0.4762 0-1.6518-0.49107-1.6072-1.3839z" color="#000000"/>
    <path d="m191.39 977.22h2.8572v2.8571c0.0446 0.9375-0.77381 1.3839-1.25 1.3839-0.4762 0-1.6518-0.49107-1.6072-1.3839z" color="#000000"/>
    <path d="m194.25 977.22h2.8572v2.8571c0.0446 0.9375-0.77381 1.3839-1.25 1.3839-0.4762 0-1.6518-0.49107-1.6072-1.3839z" color="#000000"/>
    <path d="m197.18 977.22h2.8572v2.8571c0.0446 0.9375-0.77381 1.3839-1.25 1.3839-0.4762 0-1.6518-0.49107-1.6072-1.3839z" color="#000000"/>
    <path d="m200.08 977.22h2.8572v2.8571c0.0446 0.9375-0.77381 1.3839-1.25 1.3839-0.4762 0-1.6518-0.49107-1.6072-1.3839z" color="#000000"/>
    <path d="m202.94 977.22h2.8572v2.8571c0.0446 0.9375-0.77381 1.3839-1.25 1.3839-0.4762 0-1.6518-0.49107-1.6072-1.3839z" color="#000000"/>
   </g>
   <g transform="translate(-.68409 -45.061)">
    <path d="m153.87 977.22h2.8572v2.8571c0.0446 0.9375-0.77381 1.3839-1.25 1.3839-0.4762 0-1.6518-0.49107-1.6072-1.3839z" color="#000000"/>
    <path d="m156.78 977.22h2.8572v2.8571c0.0446 0.9375-0.77381 1.3839-1.25 1.3839-0.4762 0-1.6518-0.49107-1.6072-1.3839z" color="#000000"/>
    <path d="m159.63 977.22h2.8572v2.8571c0.0446 0.9375-0.77381 1.3839-1.25 1.3839-0.4762 0-1.6518-0.49107-1.6072-1.3839z" color="#000000"/>
    <path d="m162.57 977.22h2.8572v2.8571c0.0446 0.9375-0.77381 1.3839-1.25 1.3839-0.4762 0-1.6518-0.49107-1.6072-1.3839z" color="#000000"/>
    <path d="m165.47 977.22h2.8572v2.8571c0.0446 0.9375-0.77381 1.3839-1.25 1.3839-0.4762 0-1.6518-0.49107-1.6072-1.3839z" color="#000000"/>
    <path d="m168.33 977.22h2.8572v2.8571c0.0446 0.9375-0.77381 1.3839-1.25 1.3839-0.4762 0-1.6518-0.49107-1.6072-1.3839z" color="#000000"/>
    <path d="m171.17 977.22h2.8572v2.8571c0.0446 0.9375-0.77381 1.3839-1.25 1.3839-0.4762 0-1.6518-0.49107-1.6072-1.3839z" color="#000000"/>
    <path d="m174.07 977.22h2.8572v2.8571c0.0446 0.9375-0.77381 1.3839-1.25 1.3839-0.4762 0-1.6518-0.49107-1.6072-1.3839z" color="#000000"/>
    <path d="m176.93 977.22h2.8572v2.8571c0.0446 0.9375-0.77381 1.3839-1.25 1.3839-0.4762 0-1.6518-0.49107-1.6072-1.3839z" color="#000000"/>
    <path d="m179.86 977.22h2.8572v2.8571c0.0446 0.9375-0.77381 1.3839-1.25 1.3839-0.4762 0-1.6518-0.49107-1.6072-1.3839z" color="#000000"/>
    <path d="m182.76 977.22h2.8572v2.8571c0.0446 0.9375-0.77381 1.3839-1.25 1.3839-0.4762 0-1.6518-0.49107-1.6072-1.3839z" color="#000000"/>
    <path d="m185.62 977.22h2.8572v2.8571c0.0446 0.9375-0.77381 1.3839-1.25 1.3839-0.4762 0-1.6518-0.49107-1.6072-1.3839z" color="#000000"/>
    <path d="m188.49 977.22h2.8572v2.8571c0.0446 0.9375-0.77381 1.3839-1.25 1.3839-0.4762 0-1.6518-0.49107-1.6072-1.3839z" color="#000000"/>
    <path d="m191.39 977.22h2.8572v2.8571c0.0446 0.9375-0.77381 1.3839-1.25 1.3839-0.4762 0-1.6518-0.49107-1.6072-1.3839z" color="#000000"/>
    <path d="m194.25 977.22h2.8572v2.8571c0.0446 0.9375-0.77381 1.3839-1.25 1.3839-0.4762 0-1.6518-0.49107-1.6072-1.3839z" color="#000000"/>
    <path d="m197.18 977.22h2.8572v2.8571c0.0446 0.9375-0.77381 1.3839-1.25 1.3839-0.4762 0-1.6518-0.49107-1.6072-1.3839z" color="#000000"/>
    <path d="m200.08 977.22h2.8572v2.8571c0.0446 0.9375-0.77381 1.3839-1.25 1.3839-0.4762 0-1.6518-0.49107-1.6072-1.3839z" color="#000000"/>
    <path d="m202.94 977.22h2.8572v2.8571c0.0446 0.9375-0.77381 1.3839-1.25 1.3839-0.4762 0-1.6518-0.49107-1.6072-1.3839z" color="#000000"/>
   </g>
   <g transform="translate(-2.1127 -47.294)">
    <path d="m153.87 977.22h2.8572v2.8571c0.0446 0.9375-0.77381 1.3839-1.25 1.3839-0.4762 0-1.6518-0.49107-1.6072-1.3839z" color="#000000"/>
    <path d="m156.78 977.22h2.8572v2.8571c0.0446 0.9375-0.77381 1.3839-1.25 1.3839-0.4762 0-1.6518-0.49107-1.6072-1.3839z" color="#000000"/>
    <path d="m159.63 977.22h2.8572v2.8571c0.0446 0.9375-0.77381 1.3839-1.25 1.3839-0.4762 0-1.6518-0.49107-1.6072-1.3839z" color="#000000"/>
    <path d="m162.57 977.22h2.8572v2.8571c0.0446 0.9375-0.77381 1.3839-1.25 1.3839-0.4762 0-1.6518-0.49107-1.6072-1.3839z" color="#000000"/>
    <path d="m165.47 977.22h2.8572v2.8571c0.0446 0.9375-0.77381 1.3839-1.25 1.3839-0.4762 0-1.6518-0.49107-1.6072-1.3839z" color="#000000"/>
    <path d="m168.33 977.22h2.8572v2.8571c0.0446 0.9375-0.77381 1.3839-1.25 1.3839-0.4762 0-1.6518-0.49107-1.6072-1.3839z" color="#000000"/>
    <path d="m171.17 977.22h2.8572v2.8571c0.0446 0.9375-0.77381 1.3839-1.25 1.3839-0.4762 0-1.6518-0.49107-1.6072-1.3839z" color="#000000"/>
    <path d="m174.07 977.22h2.8572v2.8571c0.0446 0.9375-0.77381 1.3839-1.25 1.3839-0.4762 0-1.6518-0.49107-1.6072-1.3839z" color="#000000"/>
    <path d="m176.93 977.22h2.8572v2.8571c0.0446 0.9375-0.77381 1.3839-1.25 1.3839-0.4762 0-1.6518-0.49107-1.6072-1.3839z" color="#000000"/>
    <path d="m179.86 977.22h2.8572v2.8571c0.0446 0.9375-0.77381 1.3839-1.25 1.3839-0.4762 0-1.6518-0.49107-1.6072-1.3839z" color="#000000"/>
    <path d="m182.76 977.22h2.8572v2.8571c0.0446 0.9375-0.77381 1.3839-1.25 1.3839-0.4762 0-1.6518-0.49107-1.6072-1.3839z" color="#000000"/>
    <path d="m185.62 977.22h2.8572v2.8571c0.0446 0.9375-0.77381 1.3839-1.25 1.3839-0.4762 0-1.6518-0.49107-1.6072-1.3839z" color="#000000"/>
    <path d="m188.49 977.22h2.8572v2.8571c0.0446 0.9375-0.77381 1.3839-1.25 1.3839-0.4762 0-1.6518-0.49107-1.6072-1.3839z" color="#000000"/>
    <path d="m191.39 977.22h2.8572v2.8571c0.0446 0.9375-0.77381 1.3839-1.25 1.3839-0.4762 0-1.6518-0.49107-1.6072-1.3839z" color="#000000"/>
    <path d="m194.25 977.22h2.8572v2.8571c0.0446 0.9375-0.77381 1.3839-1.25 1.3839-0.4762 0-1.6518-0.49107-1.6072-1.3839z" color="#000000"/>
    <path d="m197.18 977.22h2.8572v2.8571c0.0446 0.9375-0.77381 1.3839-1.25 1.3839-0.4762 0-1.6518-0.49107-1.6072-1.3839z" color="#000000"/>
    <path d="m200.08 977.22h2.8572v2.8571c0.0446 0.9375-0.77381 1.3839-1.25 1.3839-0.4762 0-1.6518-0.49107-1.6072-1.3839z" color="#000000"/>
    <path d="m202.94 977.22h2.8572v2.8571c0.0446 0.9375-0.77381 1.3839-1.25 1.3839-0.4762 0-1.6518-0.49107-1.6072-1.3839z" color="#000000"/>
   </g>
   <g transform="translate(-.41623 -49.526)">
    <path d="m153.87 977.22h2.8572v2.8571c0.0446 0.9375-0.77381 1.3839-1.25 1.3839-0.4762 0-1.6518-0.49107-1.6072-1.3839z" color="#000000"/>
    <path d="m156.78 977.22h2.8572v2.8571c0.0446 0.9375-0.77381 1.3839-1.25 1.3839-0.4762 0-1.6518-0.49107-1.6072-1.3839z" color="#000000"/>
    <path d="m159.63 977.22h2.8572v2.8571c0.0446 0.9375-0.77381 1.3839-1.25 1.3839-0.4762 0-1.6518-0.49107-1.6072-1.3839z" color="#000000"/>
    <path d="m162.57 977.22h2.8572v2.8571c0.0446 0.9375-0.77381 1.3839-1.25 1.3839-0.4762 0-1.6518-0.49107-1.6072-1.3839z" color="#000000"/>
    <path d="m165.47 977.22h2.8572v2.8571c0.0446 0.9375-0.77381 1.3839-1.25 1.3839-0.4762 0-1.6518-0.49107-1.6072-1.3839z" color="#000000"/>
    <path d="m168.33 977.22h2.8572v2.8571c0.0446 0.9375-0.77381 1.3839-1.25 1.3839-0.4762 0-1.6518-0.49107-1.6072-1.3839z" color="#000000"/>
    <path d="m171.17 977.22h2.8572v2.8571c0.0446 0.9375-0.77381 1.3839-1.25 1.3839-0.4762 0-1.6518-0.49107-1.6072-1.3839z" color="#000000"/>
    <path d="m174.07 977.22h2.8572v2.8571c0.0446 0.9375-0.77381 1.3839-1.25 1.3839-0.4762 0-1.6518-0.49107-1.6072-1.3839z" color="#000000"/>
    <path d="m176.93 977.22h2.8572v2.8571c0.0446 0.9375-0.77381 1.3839-1.25 1.3839-0.4762 0-1.6518-0.49107-1.6072-1.3839z" color="#000000"/>
    <path d="m179.86 977.22h2.8572v2.8571c0.0446 0.9375-0.77381 1.3839-1.25 1.3839-0.4762 0-1.6518-0.49107-1.6072-1.3839z" color="#000000"/>
    <path d="m182.76 977.22h2.8572v2.8571c0.0446 0.9375-0.77381 1.3839-1.25 1.3839-0.4762 0-1.6518-0.49107-1.6072-1.3839z" color="#000000"/>
    <path d="m185.62 977.22h2.8572v2.8571c0.0446 0.9375-0.77381 1.3839-1.25 1.3839-0.4762 0-1.6518-0.49107-1.6072-1.3839z" color="#000000"/>
    <path d="m188.49 977.22h2.8572v2.8571c0.0446 0.9375-0.77381 1.3839-1.25 1.3839-0.4762 0-1.6518-0.49107-1.6072-1.3839z" color="#000000"/>
    <path d="m191.39 977.22h2.8572v2.8571c0.0446 0.9375-0.77381 1.3839-1.25 1.3839-0.4762 0-1.6518-0.49107-1.6072-1.3839z" color="#000000"/>
    <path d="m194.25 977.22h2.8572v2.8571c0.0446 0.9375-0.77381 1.3839-1.25 1.3839-0.4762 0-1.6518-0.49107-1.6072-1.3839z" color="#000000"/>
    <path d="m197.18 977.22h2.8572v2.8571c0.0446 0.9375-0.77381 1.3839-1.25 1.3839-0.4762 0-1.6518-0.49107-1.6072-1.3839z" color="#000000"/>
    <path d="m200.08 977.22h2.8572v2.8571c0.0446 0.9375-0.77381 1.3839-1.25 1.3839-0.4762 0-1.6518-0.49107-1.6072-1.3839z" color="#000000"/>
    <path d="m202.94 977.22h2.8572v2.8571c0.0446 0.9375-0.77381 1.3839-1.25 1.3839-0.4762 0-1.6518-0.49107-1.6072-1.3839z" color="#000000"/>
   </g>
   <g transform="translate(-1.9341 -51.758)">
    <path d="m153.87 977.22h2.8572v2.8571c0.0446 0.9375-0.77381 1.3839-1.25 1.3839-0.4762 0-1.6518-0.49107-1.6072-1.3839z" color="#000000"/>
    <path d="m156.78 977.22h2.8572v2.8571c0.0446 0.9375-0.77381 1.3839-1.25 1.3839-0.4762 0-1.6518-0.49107-1.6072-1.3839z" color="#000000"/>
    <path d="m159.63 977.22h2.8572v2.8571c0.0446 0.9375-0.77381 1.3839-1.25 1.3839-0.4762 0-1.6518-0.49107-1.6072-1.3839z" color="#000000"/>
    <path d="m162.57 977.22h2.8572v2.8571c0.0446 0.9375-0.77381 1.3839-1.25 1.3839-0.4762 0-1.6518-0.49107-1.6072-1.3839z" color="#000000"/>
    <path d="m165.47 977.22h2.8572v2.8571c0.0446 0.9375-0.77381 1.3839-1.25 1.3839-0.4762 0-1.6518-0.49107-1.6072-1.3839z" color="#000000"/>
    <path d="m168.33 977.22h2.8572v2.8571c0.0446 0.9375-0.77381 1.3839-1.25 1.3839-0.4762 0-1.6518-0.49107-1.6072-1.3839z" color="#000000"/>
    <path d="m171.17 977.22h2.8572v2.8571c0.0446 0.9375-0.77381 1.3839-1.25 1.3839-0.4762 0-1.6518-0.49107-1.6072-1.3839z" color="#000000"/>
    <path d="m174.07 977.22h2.8572v2.8571c0.0446 0.9375-0.77381 1.3839-1.25 1.3839-0.4762 0-1.6518-0.49107-1.6072-1.3839z" color="#000000"/>
    <path d="m176.93 977.22h2.8572v2.8571c0.0446 0.9375-0.77381 1.3839-1.25 1.3839-0.4762 0-1.6518-0.49107-1.6072-1.3839z" color="#000000"/>
    <path d="m179.86 977.22h2.8572v2.8571c0.0446 0.9375-0.77381 1.3839-1.25 1.3839-0.4762 0-1.6518-0.49107-1.6072-1.3839z" color="#000000"/>
    <path d="m182.76 977.22h2.8572v2.8571c0.0446 0.9375-0.77381 1.3839-1.25 1.3839-0.4762 0-1.6518-0.49107-1.6072-1.3839z" color="#000000"/>
    <path d="m185.62 977.22h2.8572v2.8571c0.0446 0.9375-0.77381 1.3839-1.25 1.3839-0.4762 0-1.6518-0.49107-1.6072-1.3839z" color="#000000"/>
    <path d="m188.49 977.22h2.8572v2.8571c0.0446 0.9375-0.77381 1.3839-1.25 1.3839-0.4762 0-1.6518-0.49107-1.6072-1.3839z" color="#000000"/>
    <path d="m191.39 977.22h2.8572v2.8571c0.0446 0.9375-0.77381 1.3839-1.25 1.3839-0.4762 0-1.6518-0.49107-1.6072-1.3839z" color="#000000"/>
    <path d="m194.25 977.22h2.8572v2.8571c0.0446 0.9375-0.77381 1.3839-1.25 1.3839-0.4762 0-1.6518-0.49107-1.6072-1.3839z" color="#000000"/>
    <path d="m197.18 977.22h2.8572v2.8571c0.0446 0.9375-0.77381 1.3839-1.25 1.3839-0.4762 0-1.6518-0.49107-1.6072-1.3839z" color="#000000"/>
    <path d="m200.08 977.22h2.8572v2.8571c0.0446 0.9375-0.77381 1.3839-1.25 1.3839-0.4762 0-1.6518-0.49107-1.6072-1.3839z" color="#000000"/>
    <path d="m202.94 977.22h2.8572v2.8571c0.0446 0.9375-0.77381 1.3839-1.25 1.3839-0.4762 0-1.6518-0.49107-1.6072-1.3839z" color="#000000"/>
   </g>
   <g transform="translate(-.50551 -53.811)">
    <path d="m156.78 977.22h2.8572v2.8571c0.0446 0.9375-0.77381 1.3839-1.25 1.3839-0.4762 0-1.6518-0.49107-1.6072-1.3839z" color="#000000"/>
    <path d="m159.63 977.22h2.8572v2.8571c0.0446 0.9375-0.77381 1.3839-1.25 1.3839-0.4762 0-1.6518-0.49107-1.6072-1.3839z" color="#000000"/>
    <path d="m162.57 977.22h2.8572v2.8571c0.0446 0.9375-0.77381 1.3839-1.25 1.3839-0.4762 0-1.6518-0.49107-1.6072-1.3839z" color="#000000"/>
    <path d="m165.47 977.22h2.8572v2.8571c0.0446 0.9375-0.77381 1.3839-1.25 1.3839-0.4762 0-1.6518-0.49107-1.6072-1.3839z" color="#000000"/>
    <path d="m168.33 977.22h2.8572v2.8571c0.0446 0.9375-0.77381 1.3839-1.25 1.3839-0.4762 0-1.6518-0.49107-1.6072-1.3839z" color="#000000"/>
    <path d="m171.17 977.22h2.8572v2.8571c0.0446 0.9375-0.77381 1.3839-1.25 1.3839-0.4762 0-1.6518-0.49107-1.6072-1.3839z" color="#000000"/>
    <path d="m174.07 977.22h2.8572v2.8571c0.0446 0.9375-0.77381 1.3839-1.25 1.3839-0.4762 0-1.6518-0.49107-1.6072-1.3839z" color="#000000"/>
    <path d="m176.93 977.22h2.8572v2.8571c0.0446 0.9375-0.77381 1.3839-1.25 1.3839-0.4762 0-1.6518-0.49107-1.6072-1.3839z" color="#000000"/>
    <path d="m179.86 977.22h2.8572v2.8571c0.0446 0.9375-0.77381 1.3839-1.25 1.3839-0.4762 0-1.6518-0.49107-1.6072-1.3839z" color="#000000"/>
    <path d="m182.76 977.22h2.8572v2.8571c0.0446 0.9375-0.77381 1.3839-1.25 1.3839-0.4762 0-1.6518-0.49107-1.6072-1.3839z" color="#000000"/>
    <path d="m185.62 977.22h2.8572v2.8571c0.0446 0.9375-0.77381 1.3839-1.25 1.3839-0.4762 0-1.6518-0.49107-1.6072-1.3839z" color="#000000"/>
    <path d="m188.49 977.22h2.8572v2.8571c0.0446 0.9375-0.77381 1.3839-1.25 1.3839-0.4762 0-1.6518-0.49107-1.6072-1.3839z" color="#000000"/>
    <path d="m191.39 977.22h2.8572v2.8571c0.0446 0.9375-0.77381 1.3839-1.25 1.3839-0.4762 0-1.6518-0.49107-1.6072-1.3839z" color="#000000"/>
    <path d="m194.25 977.22h2.8572v2.8571c0.0446 0.9375-0.77381 1.3839-1.25 1.3839-0.4762 0-1.6518-0.49107-1.6072-1.3839z" color="#000000"/>
    <path d="m197.18 977.22h2.8572v2.8571c0.0446 0.9375-0.77381 1.3839-1.25 1.3839-0.4762 0-1.6518-0.49107-1.6072-1.3839z" color="#000000"/>
    <path d="m200.08 977.22h2.8572v2.8571c0.0446 0.9375-0.77381 1.3839-1.25 1.3839-0.4762 0-1.6518-0.49107-1.6072-1.3839z" color="#000000"/>
    <path d="m202.94 977.22h2.8572v2.8571c0.0446 0.9375-0.77381 1.3839-1.25 1.3839-0.4762 0-1.6518-0.49107-1.6072-1.3839z" color="#000000"/>
   </g>
  </g>
  <path d="m31.85 971.67 42.49 7.1973 20.961 27.779-39.08-1.1364z" fill="none" stroke="#000" stroke-linejoin="bevel" stroke-width=".99921"/>
  <path d="m30.759 972.06-2.0943 2.8149 0.20024 0.5204-1.5892 2.2575 0.16325 0.56372-1.9094 2.3035 0.37881 0.42345-1.6632 2.0126 0.34182 0.39413-1.5969 1.8341 0.35583 0.43111-1.6555 2.556 0.5344 0.3405-1.4922 1.6045 0.35583 0.66832-1.7818 2.005 0.29587 0.43111-1.6708 2.2359 0.22956 0.55606-1.9973 2.2219 0.4821 0.50508-1.9374 2.2282 0.65936 0.431-2.1083 2.2653 0.72698 0.1708-1.5076 1.7156 0.31884 0.4681-1.7001 1.6121c0.12958 0.529 0.06447 1.1187 0.625 1.2167l19.222-36.341z" fill="#2f0400" fill-rule="evenodd"/>
  <path d="m30.936 971.17 2.1466-0.37881v0.48976l2.2728-0.23722-0.04464 0.57905 2.0356-0.037-0.04464 0.36349 1.968 0.1046 0.13393 0.32651 2.7703 0.0523-0.03698 0.45278 2.6886-0.074 0.04464 0.40813 2.2282-0.0293 0.07397 0.44511 2.1989 0.06v0.39282l2.3991-0.014 0.12627 0.51908 2.3991-0.14027v0.50507l2.0203-0.25253 0.03698 0.56372 2.6147-0.0586 0.16325 0.51908 2.4884-0.014 0.04464 0.54205 2.7333-0.037-0.25254 0.37881 2.2142-0.21556 0.09694 0.49743 2.2205-0.0663-0.1046 0.48975c0.75761 0 2.6363 0.0153 2.6363 0.0153l-0.14159 0.57138 3.241-0.24489 0.55738 1.2933c-1.1705-0.45857-42.101-7.453-43.929-7.77z" fill="#370000" fill-rule="evenodd"/>
  <g transform="translate(-.18934 -1.1636)" fill-rule="evenodd">
   <path d="m5.0556 1025.9c0.89972-0.9121 2.3755-0.4539 3.5714-0.413 1.5064 0.052 2.9599 0.7227 4.4643 0.8261 1.4867 0.1017 2.9774-0.1088 4.4643-0.2066 1.6089-0.1064 3.213-0.5279 4.8214-0.413 0.60587 0.043 1.7857 1.2391 3.5714 1.2391s4.3167-0.9321 7.3214-0.4131c1.1566 0.1998 2.2263 0.9379 3.3929 1.0326 2.0328 0.1652 4.0357-0.7208 6.0714-0.8261 2.1415-0.111 4.2861 0.1245 6.4286 0.2066 1.5479 0.059 3.0944 0.1721 4.6429 0.2065 0.77367 0.017 1.5489-0.051 2.3214 0 2.6317 0.1724 5.2229 1.1392 7.8571 1.0326 1.6335-0.066 3.2026-0.772 4.8214-1.0326 1.8949-0.3049 4.6429 1.4455 5.3571 1.4455s3.75-0.8259 4.6429-0.8259c0.89286 0 3.322 0.7918 6.25 0.6195 0.8917-0.052 4.2873-1.7138 5.1786-1.6522 1.4961 0.103 2.9832 0.354 4.4643 0.6196 1.2574 0.2255 2.6617 0.8943 3.9286 1.0326 1.3037 0.1423 2.8049-1.2549 3.75-0.2065 1.0319 1.1447 0.9983 3.6015 0.17857 4.9564-0.78786 1.3021-2.5601 1.2999-3.9286 1.4456-1.9115 0.2036-6.6072-0.413-7.5-0.2066-0.89287 0.2066-3.5714 0.6197-4.2857 0.6197-0.71429 0-6.5518 0.5238-10.893 0.8261-2.5885 0.1803-7.3214 0-9.8214 0s-11.429-1.8588-13.214-1.6522c-1.7857 0.2065-9.989 1.2562-10.714 0.6195-0.54269-0.4765-6.3136-1.19-9.6429-0.6195-2.3031 0.3946-4.6413-0.4819-8.0357-0.4131-1.0117 0.021-3.9896 0.8907-5 0.8261-1.6146-0.103-4.8153-0.079-6.4286-0.2066-2.2574-0.179-3.3928-1.4455-4.2857-0.6194-0.89283 0.826-3.0357 0.413-3.2143-0.4131-0.17857-0.8261-2.248-2.3261-2.3214-3.7173-0.06332-1.2 1.004-2.9249 1.7857-3.7173z" fill="#299a00"/>
   <path d="m5.0556 1025.9c0.89972-0.9121 2.3755-0.4539 3.5714-0.413 1.5064 0.052 2.9599 0.7227 4.4643 0.8261 1.4867 0.1017 2.9774-0.1088 4.4643-0.2066 1.6089-0.1064 3.213-0.5279 4.8214-0.413 0.60587 0.043 1.7857 1.2391 3.5714 1.2391s4.3167-0.9321 7.3214-0.4131c1.1566 0.1998 2.2263 0.9379 3.3929 1.0326 2.0328 0.1652 4.0357-0.7208 6.0714-0.8261 2.1415-0.111 4.2861 0.1245 6.4286 0.2066 1.5479 0.059 3.0944 0.1721 4.6429 0.2065 0.77367 0.017 1.5489-0.051 2.3214 0 2.6317 0.1724 5.2229 1.1392 7.8571 1.0326 1.6335-0.066 3.2026-0.772 4.8214-1.0326 1.8949-0.3049 4.6429 1.4455 5.3571 1.4455s3.75-0.8259 4.6429-0.8259c0.89286 0 3.322 0.7918 6.25 0.6195 0.8917-0.052 4.2873-1.7138 5.1786-1.6522 1.4961 0.103 2.9832 0.354 4.4643 0.6196 1.2574 0.2255 2.6617 0.8943 3.9286 1.0326 1.3037 0.1423 2.805-1.2549 3.75-0.2065 1.0319 1.1447 0.9983 3.6015 0.17857 4.9564-0.78786 1.3021-2.5601 1.2999-3.9286 1.4456-1.9115 0.2036-6.6072-0.413-7.5-0.2066-0.89287 0.2066-3.5714 0.6197-4.2857 0.6197-0.71429 0-6.5518 0.5238-10.893 0.8261-2.5885 0.1803-7.3214 0-9.8214 0s-11.429-1.8588-13.214-1.6522c-1.7857 0.2065-9.989 1.2562-10.714 0.6195-0.54269-0.4765-6.3136-1.19-9.6429-0.6195-2.3031 0.3946-4.6413-0.4819-8.0357-0.4131-1.0117 0.021-3.9896 0.8907-5 0.8261-1.6146-0.103-4.8153-0.079-6.4286-0.2066-2.2574-0.179-3.3928-1.4455-4.2857-0.6194-0.89283 0.826-3.0357 0.413-3.2143-0.4131s-2.248-2.3261-2.3214-3.7173c-0.063318-1.2 1.004-2.9249 1.7857-3.7173z" fill="url(#f)"/>
  </g>
 </g>
</svg>
