<?xml version="1.0" encoding="UTF-8"?>
<svg viewBox="0 0 744.09447 1052.362179" xmlns="http://www.w3.org/2000/svg">
 <defs>
  <filter id="d">
   <feGaussianBlur stdDeviation=".28"/>
  </filter>
  <linearGradient id="c" x1="204.05" x2="198.28" y1="265.36" y2="276.95" gradientUnits="userSpaceOnUse">
   <stop stop-color="#fff" offset="0"/>
   <stop stop-color="#fff" stop-opacity="0" offset="1"/>
  </linearGradient>
  <linearGradient id="b" x1="357.75" x2="429.98" y1="38.1" y2="156.14" gradientUnits="userSpaceOnUse">
   <stop stop-color="#868686" offset="0"/>
   <stop stop-color="#181816" offset="1"/>
  </linearGradient>
  <linearGradient id="a" x1="265.66" x2="407.35" y1="213.88" y2="382.91" gradientUnits="userSpaceOnUse">
   <stop stop-color="#ef7100" offset="0"/>
   <stop stop-color="#efa700" offset="1"/>
  </linearGradient>
 </defs>
 <path d="m280.1 147.13c-2.3465 0.2486-4.5239 1.3374-6.1307 3.0653l-74.181 78.677c-1.7168 1.8246-2.6676 4.2385-2.6566 6.7437v133.44c0.0129 4.1407 2.6324 7.8244 6.5394 9.196l40.871 15.15c2.9602 1.0621 6.1957 0.5556 8.7873-1.2261s4.2231-4.6213 4.2915-7.7655l-0.8174-131.63 46.593 0.4087-0.6131 151.02c0.0429 4.1945 2.7561 7.8943 6.7437 9.196l75.816 26.158c1.9067 0.6798 3.9773 0.7513 5.9263 0.2044l166.96-52.315c4.1401-1.252 6.966-5.0751 6.9481-9.4004v-120.98c9e-3 -2.64-0.9751-5.1007-2.861-6.9481s-4.5133-2.9244-7.1525-2.861l-142.03 3.2697-125.68-100.95c-2.0095-1.7964-4.6714-2.6837-7.3568-2.4523zm220.3 149.79c4.8917-0.0247 8.7626 3.8956 8.7873 8.7873l0.2044 34.127c0.0247 4.8918-3.8956 8.7626-8.7873 8.7873l-28.814 7.1524c-4.8918 0.0247-8.9669-3.8956-8.9916-8.7873l-0.2044-40.667c-0.0247-4.8918 3.8955-8.9669 8.7873-8.9916l29.018-0.4087z" fill="url(#a)" fill-rule="evenodd"/>
 <path d="m279.761,86.4163c-1.0377.1137-1.9905.6267-2.6566,1.4305l-109.9434,120.1612c-1.4063,1.6022-1.3166,4.0238.2044,5.5176l10.8308,11.2396c.7822.7393 1.8282,1.134 2.9038,1.0955s2.0908-.5067 2.8182-1.2999l96.4559-103.6084 124.657,96.4559c.0603.14.1286.2765.2044.4087l.4087.2044c.6779.6087 1.5426.9691 2.4523,1.0218h.2044 .2043l157.5583-.2044c2.84.4519 3.471-2.315 4.0871-4.0871l3.1774-11.189c.011-1.2891-.597-2.5051-1.6348-3.2697l-122.5211-89.9671c-.6135-.3848-1.3196-.5966-2.0436-.6131-.1322-.0758-.2687-.1441-.4087-.2044h-.2044v.2044l-165.5282-23.0922c-.1985-.0845-.4035-.1528-.6131-.2044h-.2043c-.1362-.0069-.2726-.0069-.4087,0z" fill="url(#b)" fill-rule="evenodd"/>
 <path transform="matrix(6.5394 0 0 6.5394 -1038.5 -1656.5)" d="m201.5,267.7813c-.0715.0262-.1358.0691-.1875.125l-16.1148,17.2704c-.1407.1541-.1659.3813-.0625.5625l.8076.8559c.0761.1263.2059.2108.3522.2291s.2929-.0316.3978-.1353l15.0072-15.5014 18.9143,14.8881c.1442.1155.3419.1381.5085.0582s.2726-.2484.2727-.4332l-.0517-2.3255c.0059-.142-.0513-.2792-.1563-.375l-19.2188-15.125c-.1285-.1122-.3069-.1479-.4688-.0938z" fill="url(#c)" fill-rule="evenodd" filter="url(#d)" opacity=".633"/>
</svg>
