<?xml version="1.0" encoding="utf-8"?>
<!-- Generator: Adobe Illustrator 18.1.1, SVG Export Plug-In . SVG Version: 6.00 Build 0)  -->
<svg version="1.1" id="Layer_1" xmlns="http://www.w3.org/2000/svg" xmlns:xlink="http://www.w3.org/1999/xlink" x="0px" y="0px"
	 viewBox="0 0 3000 1687.5" enable-background="new 0 0 3000 1687.5" xml:space="preserve">
<g>
	<defs>
		<rect id="SVGID_1_" width="3000" height="1687.5"/>
	</defs>
	<clipPath id="SVGID_2_">
		<use xlink:href="#SVGID_1_"  overflow="visible"/>
	</clipPath>
	<g clip-path="url(#SVGID_2_)">
		<rect fill="#73D2FF" width="3000" height="1687.5"/>
		<ellipse fill="#58F56C" cx="1500" cy="1687.5" rx="2257" ry="691.1"/>
		<g>
			<g>
				<g>
					<path fill="#F2F2F2" d="M2989.5,384.8c0,37.4-30.3,67.8-67.8,67.8h-164.3c-30.2,0-54.8-24.5-54.8-54.8c0-10.6,3-20.4,8.1-28.7
						c9.6-15.6,26.9-26,46.6-26c4.9,0,9.5,0.6,14,1.8c3.4-34.2,32.3-60.9,67.4-60.9c26.4,0,49.1,15,60.4,37
						c7.1-2.5,14.6-3.9,22.5-3.9c27.2,0,50.6,16,61.4,39.1C2987.3,364.8,2989.5,374.6,2989.5,384.8z"/>
				</g>
				<g>
					<path fill="#FFFFFF" d="M2983.2,356.1c-10.8,23.1-34.2,39-61.4,39h-164.3c-19.7,0-37-10.4-46.6-26c9.6-15.6,26.9-26,46.6-26
						c4.9,0,9.5,0.6,14,1.8c3.4-34.2,32.3-60.9,67.4-60.9c26.4,0,49.1,15,60.4,37c7.1-2.5,14.6-3.9,22.5-3.9
						C2949,317.1,2972.4,333.1,2983.2,356.1z"/>
				</g>
			</g>
			<g>
				<g>
					<path fill="#F2F2F2" d="M2574.9,135.9c0,31-25.2,56.2-56.2,56.2h-136.2c-25,0-45.4-20.3-45.4-45.4c0-8.8,2.5-16.9,6.7-23.8
						c8-12.9,22.3-21.6,38.7-21.6c4,0,7.9,0.5,11.6,1.5c2.8-28.3,26.8-50.5,55.9-50.5c21.9,0,40.7,12.5,50,30.7
						c5.9-2,12.1-3.2,18.7-3.2c22.5,0,41.9,13.3,50.9,32.4C2573,119.4,2574.9,127.4,2574.9,135.9z"/>
				</g>
				<g>
					<path fill="#FFFFFF" d="M2569.6,112.1c-9,19.1-28.3,32.3-50.9,32.3h-136.2c-16.3,0-30.7-8.6-38.7-21.6
						c8-12.9,22.3-21.6,38.7-21.6c4,0,7.9,0.5,11.6,1.5c2.8-28.3,26.8-50.5,55.9-50.5c21.9,0,40.7,12.5,50,30.7
						c5.9-2,12.1-3.2,18.7-3.2C2541.3,79.8,2560.7,93,2569.6,112.1z"/>
				</g>
			</g>
			<g>
				<g>
					<path fill="#F2F2F2" d="M343.4,405.7c0,24-19.4,43.4-43.4,43.4H194.9c-19.3,0-35.1-15.7-35.1-35.1c0-6.8,1.9-13,5.2-18.4
						c6.2-10,17.2-16.7,29.9-16.7c3.1,0,6.1,0.4,9,1.2c2.2-21.9,20.7-39,43.1-39c16.9,0,31.4,9.6,38.6,23.7
						c4.5-1.6,9.3-2.5,14.4-2.5c17.4,0,32.4,10.2,39.3,25C342,392.9,343.4,399.2,343.4,405.7z"/>
				</g>
				<g>
					<path fill="#FFFFFF" d="M339.4,387.3c-6.9,14.8-21.9,25-39.3,25H194.9c-12.6,0-23.7-6.7-29.9-16.7c6.2-10,17.2-16.7,29.9-16.7
						c3.1,0,6.1,0.4,9,1.2c2.2-21.9,20.7-39,43.1-39c16.9,0,31.4,9.6,38.6,23.7c4.5-1.6,9.3-2.5,14.4-2.5
						C317.5,362.3,332.5,372.6,339.4,387.3z"/>
				</g>
			</g>
			<g>
				<g>
					<path fill="#F2F2F2" d="M1474.1,138.8c0,37.4-30.3,67.8-67.8,67.8h-164.3c-30.2,0-54.8-24.5-54.8-54.8c0-10.6,3-20.4,8.1-28.7
						c9.6-15.6,26.9-26,46.6-26c4.9,0,9.5,0.6,14,1.8c3.4-34.2,32.3-60.9,67.4-60.9c26.4,0,49.1,15,60.4,37
						c7.1-2.5,14.6-3.9,22.5-3.9c27.2,0,50.6,16,61.4,39.1C1471.9,118.8,1474.1,128.5,1474.1,138.8z"/>
				</g>
				<g>
					<path fill="#FFFFFF" d="M1467.8,110.1c-10.8,23.1-34.2,39-61.4,39h-164.3c-19.7,0-37-10.4-46.6-26c9.6-15.6,26.9-26,46.6-26
						c4.9,0,9.5,0.6,14,1.8c3.4-34.2,32.3-60.9,67.4-60.9c26.4,0,49.1,15,60.4,37c7.1-2.5,14.6-3.9,22.5-3.9
						C1433.6,71,1457,87,1467.8,110.1z"/>
				</g>
			</g>
			<g>
				<g>
					<path fill="#F2F2F2" d="M297.2,157.9c0,30.1-24.4,54.5-54.5,54.5H110.5c-24.3,0-44.1-19.7-44.1-44.1c0-8.5,2.4-16.4,6.5-23.1
						c7.7-12.6,21.7-21,37.5-21c3.9,0,7.7,0.5,11.3,1.5c2.7-27.5,26-49,54.2-49c21.2,0,39.5,12.1,48.6,29.8c5.7-2,11.7-3.1,18.1-3.1
						c21.9,0,40.7,12.9,49.4,31.4C295.4,141.8,297.2,149.7,297.2,157.9z"/>
				</g>
				<g>
					<path fill="#FFFFFF" d="M292.1,134.8c-8.7,18.6-27.5,31.4-49.4,31.4H110.5c-15.9,0-29.8-8.4-37.5-21c7.7-12.6,21.7-21,37.5-21
						c3.9,0,7.7,0.5,11.3,1.5c2.7-27.5,26-49,54.2-49c21.2,0,39.5,12.1,48.6,29.8c5.7-2,11.7-3.1,18.1-3.1
						C264.6,103.4,283.4,116.2,292.1,134.8z"/>
				</g>
			</g>
			<g>
				<g>
					<path fill="#F2F2F2" d="M1634.2,404.7c0,30.1-24.4,54.5-54.5,54.5h-132.2c-24.3,0-44.1-19.7-44.1-44.1c0-8.5,2.4-16.4,6.5-23.1
						c7.7-12.6,21.7-21,37.5-21c3.9,0,7.7,0.5,11.3,1.5c2.7-27.5,26-49,54.2-49c21.2,0,39.5,12.1,48.6,29.8c5.7-2,11.7-3.1,18.1-3.1
						c21.9,0,40.7,12.9,49.4,31.4C1632.4,388.6,1634.2,396.5,1634.2,404.7z"/>
				</g>
				<g>
					<path fill="#FFFFFF" d="M1629.1,381.6c-8.7,18.6-27.5,31.4-49.4,31.4h-132.2c-15.9,0-29.8-8.4-37.5-21
						c7.7-12.6,21.7-21,37.5-21c3.9,0,7.7,0.5,11.3,1.5c2.7-27.5,26-49,54.2-49c21.2,0,39.5,12.1,48.6,29.8c5.7-2,11.7-3.1,18.1-3.1
						C1601.6,350.2,1620.4,363,1629.1,381.6z"/>
				</g>
			</g>
			<g>
				<g>
					<path fill="#F2F2F2" d="M1966,193.8c0,46.3-37.6,83.9-83.9,83.9h-203.4c-37.4,0-67.8-30.4-67.8-67.8c0-13.1,3.7-25.2,10-35.5
						c11.9-19.3,33.3-32.2,57.8-32.2c6,0,11.8,0.8,17.4,2.3c4.2-42.3,40-75.4,83.4-75.4c32.6,0,60.8,18.6,74.7,45.8
						c8.8-3.1,18.1-4.8,27.9-4.8c33.6,0,62.6,19.8,76,48.4C1963.2,169.1,1966,181.1,1966,193.8z"/>
				</g>
				<g>
					<path fill="#FFFFFF" d="M1958.1,158.3c-13.4,28.6-42.3,48.3-76,48.3h-203.4c-24.4,0-45.8-12.9-57.8-32.2
						c11.9-19.3,33.3-32.2,57.8-32.2c6,0,11.8,0.8,17.4,2.3c4.2-42.3,40-75.4,83.4-75.4c32.6,0,60.8,18.6,74.7,45.8
						c8.8-3.1,18.1-4.8,27.9-4.8C1915.8,109.9,1944.8,129.7,1958.1,158.3z"/>
				</g>
			</g>
		</g>
		<path fill="#51E063" d="M745.5,1316.2c0,0,218.3,72.5,216,178.3c-2.3,105.8,361.6,61.4,520,66.8s609.7,59.1,675.7,15.5
			s-161-270.4-137.1-345.7c23.9-75.3,116.5-148.1-136.1-172.7S438.9,1058.3,745.5,1316.2z"/>
		<g>
			<g>
				<polygon fill="#8898CE" points="2665.3,1193.4 2600.4,1193.4 2600.8,1179 2617.3,587.9 2648.5,587.9 2664.9,1179 				"/>
				<path fill="#7B8ABC" d="M2690.2,1193.4c0,4-1.6,7.6-4.2,10.2c-2.6,2.6-6.2,4.2-10.2,4.2h-86c-7.9,0-14.4-6.4-14.4-14.4
					c0-4,1.6-7.6,4.2-10.2c2.6-2.6,6.2-4.2,10.2-4.2h86C2683.8,1179,2690.2,1185.5,2690.2,1193.4z"/>
				<path opacity="0.5" fill="#7F8EC1" d="M2690.2,1193.4c0,4-1.6,7.6-4.2,10.2c-2.6,2.6-6.2,4.2-10.2,4.2h-43V587.9h15.6
					l16.5,591.2h10.9C2683.8,1179,2690.2,1185.5,2690.2,1193.4z"/>
			</g>
			<g>
				<g>
					<polygon fill="#9EBCF0" points="2643,200 2643,508.7 2625.2,508.7 2576.1,437.9 2631.4,199.7 2632.9,199.8 					"/>
					<polygon fill="#9695E2" points="2643,200 2643,508.7 2632.9,508.7 2632.9,199.8 					"/>
				</g>
				<g>
					<polygon fill="#9EBCF0" points="2324.7,716.3 2592,562 2600.9,577.3 2564.2,655.3 2330.3,726.5 2329.5,725.2 					"/>
					<polygon fill="#9695E2" points="2324.7,716.3 2592,562 2597.1,570.7 2329.5,725.2 					"/>
				</g>
				<g>
					<polygon fill="#9EBCF0" points="2931,733.8 2663.6,579.5 2672.5,564.1 2758.4,556.9 2937,723.9 2936.2,725.2 					"/>
					<polygon fill="#9695E2" points="2931,733.8 2663.6,579.5 2668.7,570.7 2936.2,725.2 					"/>
				</g>
				<circle fill="#8898CE" cx="2632.9" cy="550" r="51.6"/>
				<circle fill="#9EBCF0" cx="2632.9" cy="550" r="37.8"/>
			</g>
		</g>
		<g>
			<g>
				<polygon fill="#8898CE" points="2310.4,1267.1 2232.1,1267.1 2232.6,1249.7 2252.4,536.9 2290,536.9 2309.9,1249.7 				"/>
				<path fill="#7B8ABC" d="M2340.4,1267.1c0,4.8-1.9,9.1-5.1,12.2c-3.1,3.1-7.5,5.1-12.2,5.1h-103.6c-9.6,0-17.3-7.8-17.3-17.3
					c0-4.8,1.9-9.1,5.1-12.2c3.1-3.1,7.5-5.1,12.2-5.1h103.6C2332.6,1249.7,2340.4,1257.5,2340.4,1267.1z"/>
				<path opacity="0.5" fill="#7F8EC1" d="M2340.4,1267.1c0,4.8-1.9,9.1-5.1,12.2c-3.1,3.1-7.5,5.1-12.2,5.1h-51.8V536.9h18.8
					l19.8,712.8h13.2C2332.6,1249.7,2340.4,1257.5,2340.4,1267.1z"/>
			</g>
			<g>
				<g>
					<polygon fill="#9EBCF0" points="2283.4,69.2 2283.4,441.4 2262,441.4 2202.7,356.1 2269.4,68.9 2271.2,68.9 					"/>
					<polygon fill="#9695E2" points="2283.4,69.2 2283.4,441.4 2271.2,441.4 2271.2,68.9 					"/>
				</g>
				<g>
					<polygon fill="#9EBCF0" points="1899.6,691.8 2222,505.7 2232.7,524.2 2188.4,618.2 1906.3,704 1905.5,702.5 					"/>
					<polygon fill="#9695E2" points="1899.6,691.8 2222,505.7 2228.1,516.2 1905.5,702.5 					"/>
				</g>
				<g>
					<polygon fill="#9EBCF0" points="2630.7,712.9 2308.3,526.8 2319,508.2 2422.6,499.6 2637.9,700.9 2637,702.5 					"/>
					<polygon fill="#9695E2" points="2630.7,712.9 2308.3,526.8 2314.4,516.2 2637,702.5 					"/>
				</g>
				<circle fill="#8898CE" cx="2271.2" cy="491.3" r="62.2"/>
				<circle fill="#9EBCF0" cx="2271.2" cy="491.3" r="45.6"/>
			</g>
		</g>
		<g>
			<g>
				<rect x="1003.9" y="1194.8" fill="#3F617D" width="113" height="109.8"/>
			</g>
			<g>
				<g>
					<path fill="#80C6FF" d="M1327,1222.4H793c-15.1,0-23.3-11.3-19.6-25.9c0.3-1.2,0.7-2.4,1.1-3.6l100.6-267.7
						c6.1-16.3,19.2-29.6,29.1-29.6h324.2c3.4,0,7,1.5,10.6,4.2c7,5.2,13.7,14.6,17.3,25.4l90.2,267.7
						C1352.1,1209.1,1343.3,1222.4,1327,1222.4z"/>
					<path fill="#659CC9" d="M1327,1233.9H793c-10.7,0-19.9-4.1-25.7-11.6c-6-7.7-7.8-17.8-5-28.6c0.4-1.6,0.9-3.2,1.5-4.9
						l100.6-267.7c6.9-18.4,22.8-37,39.8-37h324.2c5.7,0,11.7,2.2,17.4,6.4c9.1,6.7,17.1,18.3,21.4,31l90.2,267.7
						c3.9,11.6,2.6,23.2-3.6,31.8C1348.1,1229.2,1338.2,1233.9,1327,1233.9z M1228.5,907l-324.2,0c-2.9,0.1-13,8-18.3,22.1
						l-100.6,267.7c-0.3,0.8-0.6,1.6-0.8,2.4c-0.9,3.7-0.6,6.9,0.9,8.9c1.9,2.4,5.5,2.8,7.6,2.8h534c2.7,0,6.3-0.6,8.3-3.3
						c1.8-2.5,2-6.6,0.4-11.1l-90.2-267.7c-2.7-8.1-7.9-15.9-13.3-19.8C1230.1,907.4,1228.8,907,1228.5,907z"/>
				</g>
				<g>
					<g>
						<path fill="#269FFF" d="M934.3,996.5h-39.1c-9.7,0-14.1-10.8-9.7-24.2l10.2-31.2c4.4-13.4,14.8-24.2,23.2-24.2h34
							c8.5,0,13.1,10.8,10.3,24.2l-6.4,31.2C954.1,985.7,944,996.5,934.3,996.5z"/>
					</g>
					<g>
						<path fill="#269FFF" d="M1033.8,996.5h-39.1c-9.7,0-15.8-10.8-13.7-24.2l5.1-31.2c2.2-13.4,10.8-24.2,19.3-24.2h34
							c8.5,0,14.9,10.8,14.3,24.2l-1.3,31.2C1051.8,985.7,1043.5,996.5,1033.8,996.5z"/>
					</g>
					<g>
						<path fill="#269FFF" d="M1133.3,996.5h-39.1c-9.7,0-17.6-10.8-17.6-24.2l0-31.2c0-13.4,6.8-24.2,15.3-24.2h34
							c8.5,0,16.6,10.8,18.3,24.2l3.8,31.2C1149.5,985.7,1143,996.5,1133.3,996.5z"/>
					</g>
					<g>
						<path fill="#269FFF" d="M1232.7,996.5h-39.1c-9.7,0-19.4-10.8-21.6-24.2l-5.1-31.2c-2.2-13.4,2.9-24.2,11.3-24.2h34
							c8.5,0,18.4,10.8,22.3,24.2l9,31.2C1247.3,985.7,1242.5,996.5,1232.7,996.5z"/>
					</g>
					<g>
						<path fill="#269FFF" d="M910.3,1098.7h-45.7c-11.4,0-17-10.8-12.7-24.2l10.2-31.2c4.4-13.4,16.1-24.2,26.2-24.2H929
							c10.1,0,16.1,10.8,13.3,24.2l-6.4,31.2C933.2,1087.9,921.7,1098.7,910.3,1098.7z"/>
					</g>
					<g>
						<path fill="#269FFF" d="M1026.6,1098.7h-45.7c-11.4,0-18.8-10.8-16.6-24.2l5.1-31.2c2.2-13.4,12.1-24.2,22.2-24.2h40.6
							c10.1,0,17.8,10.8,17.3,24.2l-1.3,31.2C1047.6,1087.9,1038,1098.7,1026.6,1098.7z"/>
					</g>
					<g>
						<path fill="#269FFF" d="M1142.9,1098.7h-45.7c-11.4,0-20.6-10.8-20.6-24.2l0-31.2c0-13.4,8.2-24.2,18.3-24.2h40.6
							c10.1,0,19.6,10.8,21.3,24.2l3.8,31.2C1162.1,1087.9,1154.3,1098.7,1142.9,1098.7z"/>
					</g>
					<g>
						<path fill="#269FFF" d="M1259.2,1098.7h-45.7c-11.4,0-22.4-10.8-24.6-24.2l-5.1-31.2c-2.2-13.4,4.2-24.2,14.3-24.2h40.6
							c10.1,0,21.4,10.8,25.2,24.2l9,31.2C1276.6,1087.9,1270.5,1098.7,1259.2,1098.7z"/>
					</g>
					<g>
						<path fill="#269FFF" d="M886.4,1201h-52.3c-13,0-20-10.8-15.6-24.2l10.2-31.2c4.4-13.4,17.4-24.2,29.2-24.2H905
							c11.7,0,19,10.8,16.3,24.2l-6.4,31.2C912.2,1190.2,899.4,1201,886.4,1201z"/>
					</g>
					<g>
						<path fill="#269FFF" d="M1019.5,1201h-52.3c-13,0-21.8-10.8-19.6-24.2l5.1-31.2c2.2-13.4,13.5-24.2,25.2-24.2h47.2
							c11.7,0,20.8,10.8,20.3,24.2l-1.3,31.2C1043.5,1190.2,1032.5,1201,1019.5,1201z"/>
					</g>
					<g>
						<path fill="#269FFF" d="M1152.5,1201h-52.3c-13,0-23.6-10.8-23.6-24.2l0-31.2c0-13.4,9.5-24.2,21.2-24.2h47.2
							c11.7,0,22.6,10.8,24.2,24.2l3.8,31.2C1174.7,1190.2,1165.5,1201,1152.5,1201z"/>
					</g>
					<g>
						<path fill="#269FFF" d="M1285.6,1201h-52.3c-13,0-25.3-10.8-27.5-24.2l-5.1-31.2c-2.2-13.4,5.5-24.2,17.3-24.2h47.2
							c11.7,0,24.4,10.8,28.2,24.2l9,31.2C1306,1190.2,1298.6,1201,1285.6,1201z"/>
					</g>
				</g>
			</g>
			<g>
				<path fill="#3F617D" d="M1209.3,1335.4H911.4c-10.9,0-19.8-8.8-19.8-19.8v0c0-10.9,8.8-19.8,19.8-19.8h297.9
					c10.9,0,19.8,8.8,19.8,19.8v0C1229.1,1326.6,1220.3,1335.4,1209.3,1335.4z"/>
			</g>
			<g opacity="0.1">
				<path fill="#3F617D" d="M1327,1222.4H793c-15.1,0-23.3-11.3-19.6-25.9c15-3.8,29.6-7.8,43.7-11.8
					c37.5-10.8,71.8-22.3,103.2-34.3c12.3-4.7,24.2-9.5,35.7-14.4c11.1-4.7,21.8-9.5,32.1-14.4c33.4-15.8,62.7-32.1,88.4-48.7
					c26.1-16.8,48.5-33.9,67.7-50.8c12.9-11.4,24.4-22.7,34.7-33.8c20.3-22.1,35.6-43.5,47-63.2c5.1-8.8,9.5-17.2,13.1-25.3
					c7,5.2,13.7,14.6,17.3,25.4l90.2,267.7C1352.1,1209.1,1343.3,1222.4,1327,1222.4z"/>
			</g>
		</g>
		<g>
			<g>
				<rect x="1625.9" y="1194.8" fill="#3F617D" width="113" height="109.8"/>
			</g>
			<g>
				<g>
					<path fill="#80C6FF" d="M1949.1,1222.4h-534c-15.1,0-23.3-11.3-19.6-25.9c0.3-1.2,0.7-2.4,1.1-3.6l100.6-267.7
						c6.1-16.3,19.2-29.6,29.1-29.6h324.2c3.4,0,7,1.5,10.6,4.2c7,5.2,13.7,14.6,17.3,25.4l90.2,267.7
						C1974.2,1209.1,1965.4,1222.4,1949.1,1222.4z"/>
					<path fill="#659CC9" d="M1949.1,1233.9h-534c-10.7,0-19.9-4.1-25.7-11.6c-6-7.7-7.8-17.8-5-28.6c0.4-1.6,0.9-3.2,1.5-4.9
						l100.6-267.7c6.9-18.4,22.8-37,39.8-37h324.2c5.7,0,11.7,2.2,17.4,6.4c9.1,6.7,17.1,18.3,21.4,31l90.2,267.7
						c3.9,11.6,2.6,23.2-3.6,31.8C1970.1,1229.2,1960.3,1233.9,1949.1,1233.9z M1850.5,907l-324.2,0c-2.9,0.1-13,8-18.3,22.1
						l-100.6,267.7c-0.3,0.8-0.6,1.6-0.8,2.4c-0.9,3.7-0.6,6.9,0.9,8.9c1.9,2.4,5.5,2.8,7.6,2.8h534c2.7,0,6.3-0.6,8.3-3.3
						c1.8-2.5,2-6.6,0.4-11.1l-90.2-267.7c-2.7-8.1-7.9-15.9-13.3-19.8C1852.2,907.4,1850.8,907,1850.5,907z"/>
				</g>
				<g>
					<g>
						<path fill="#269FFF" d="M1556.3,996.5h-39.1c-9.7,0-14.1-10.8-9.7-24.2l10.2-31.2c4.4-13.4,14.8-24.2,23.2-24.2h34
							c8.5,0,13.1,10.8,10.3,24.2l-6.4,31.2C1576.2,985.7,1566.1,996.5,1556.3,996.5z"/>
					</g>
					<g>
						<path fill="#269FFF" d="M1655.8,996.5h-39.1c-9.7,0-15.8-10.8-13.7-24.2l5.1-31.2c2.2-13.4,10.8-24.2,19.3-24.2h34
							c8.5,0,14.9,10.8,14.3,24.2l-1.3,31.2C1673.9,985.7,1665.5,996.5,1655.8,996.5z"/>
					</g>
					<g>
						<path fill="#269FFF" d="M1755.3,996.5h-39.1c-9.7,0-17.6-10.8-17.6-24.2l0-31.2c0-13.4,6.8-24.2,15.3-24.2h34
							c8.5,0,16.6,10.8,18.3,24.2l3.8,31.2C1771.6,985.7,1765,996.5,1755.3,996.5z"/>
					</g>
					<g>
						<path fill="#269FFF" d="M1854.8,996.5h-39.1c-9.7,0-19.4-10.8-21.6-24.2l-5.1-31.2c-2.2-13.4,2.9-24.2,11.3-24.2h34
							c8.5,0,18.4,10.8,22.3,24.2l9,31.2C1869.3,985.7,1864.5,996.5,1854.8,996.5z"/>
					</g>
					<g>
						<path fill="#269FFF" d="M1532.4,1098.7h-45.7c-11.4,0-17-10.8-12.7-24.2l10.2-31.2c4.4-13.4,16.1-24.2,26.2-24.2h40.6
							c10.1,0,16.1,10.8,13.3,24.2l-6.4,31.2C1555.2,1087.9,1543.8,1098.7,1532.4,1098.7z"/>
					</g>
					<g>
						<path fill="#269FFF" d="M1648.7,1098.7h-45.7c-11.4,0-18.8-10.8-16.6-24.2l5.1-31.2c2.2-13.4,12.1-24.2,22.2-24.2h40.6
							c10.1,0,17.8,10.8,17.3,24.2l-1.3,31.2C1669.7,1087.9,1660,1098.7,1648.7,1098.7z"/>
					</g>
					<g>
						<path fill="#269FFF" d="M1764.9,1098.7h-45.7c-11.4,0-20.6-10.8-20.6-24.2l0-31.2c0-13.4,8.2-24.2,18.3-24.2h40.6
							c10.1,0,19.6,10.8,21.3,24.2l3.8,31.2C1784.2,1087.9,1776.3,1098.7,1764.9,1098.7z"/>
					</g>
					<g>
						<path fill="#269FFF" d="M1881.2,1098.7h-45.7c-11.4,0-22.4-10.8-24.6-24.2l-5.1-31.2c-2.2-13.4,4.2-24.2,14.3-24.2h40.6
							c10.1,0,21.4,10.8,25.2,24.2l9,31.2C1898.7,1087.9,1892.6,1098.7,1881.2,1098.7z"/>
					</g>
					<g>
						<path fill="#269FFF" d="M1508.5,1201h-52.3c-13,0-20-10.8-15.6-24.2l10.2-31.2c4.4-13.4,17.4-24.2,29.2-24.2h47.2
							c11.7,0,19,10.8,16.3,24.2l-6.4,31.2C1534.2,1190.2,1521.5,1201,1508.5,1201z"/>
					</g>
					<g>
						<path fill="#269FFF" d="M1641.5,1201h-52.3c-13,0-21.8-10.8-19.6-24.2l5.1-31.2c2.2-13.4,13.5-24.2,25.2-24.2h47.2
							c11.7,0,20.8,10.8,20.3,24.2l-1.3,31.2C1665.5,1190.2,1654.5,1201,1641.5,1201z"/>
					</g>
					<g>
						<path fill="#269FFF" d="M1774.6,1201h-52.3c-13,0-23.6-10.8-23.6-24.2l0-31.2c0-13.4,9.5-24.2,21.2-24.2h47.2
							c11.7,0,22.6,10.8,24.2,24.2l3.8,31.2C1796.8,1190.2,1787.6,1201,1774.6,1201z"/>
					</g>
					<g>
						<path fill="#269FFF" d="M1907.6,1201h-52.3c-13,0-25.3-10.8-27.5-24.2l-5.1-31.2c-2.2-13.4,5.5-24.2,17.3-24.2h47.2
							c11.7,0,24.4,10.8,28.2,24.2l9,31.2C1928.1,1190.2,1920.6,1201,1907.6,1201z"/>
					</g>
				</g>
			</g>
			<g>
				<path fill="#3F617D" d="M1831.4,1335.4h-297.9c-10.9,0-19.8-8.8-19.8-19.8v0c0-10.9,8.8-19.8,19.8-19.8h297.9
					c10.9,0,19.8,8.8,19.8,19.8v0C1851.2,1326.6,1842.3,1335.4,1831.4,1335.4z"/>
			</g>
			<g opacity="0.1">
				<path fill="#3F617D" d="M1949.1,1222.4h-534c-15.1,0-23.3-11.3-19.6-25.9c15-3.8,29.6-7.8,43.7-11.8
					c37.5-10.8,71.8-22.3,103.2-34.3c12.3-4.7,24.2-9.5,35.7-14.4c11.1-4.7,21.8-9.5,32.1-14.4c33.4-15.8,62.7-32.1,88.4-48.7
					c26.1-16.8,48.5-33.9,67.7-50.8c12.9-11.4,24.4-22.7,34.7-33.8c20.3-22.1,35.6-43.5,47-63.2c5.1-8.8,9.5-17.2,13.1-25.3
					c7,5.2,13.7,14.6,17.3,25.4l90.2,267.7C1974.2,1209.1,1965.4,1222.4,1949.1,1222.4z"/>
			</g>
		</g>
		<g>
			<g>
				<rect x="1186.4" y="1377.4" fill="#3F617D" width="113" height="109.8"/>
			</g>
			<g>
				<g>
					<path fill="#80C6FF" d="M1509.6,1404.9h-534c-15.1,0-23.3-11.3-19.6-25.9c0.3-1.2,0.7-2.4,1.1-3.6l100.6-267.7
						c6.1-16.3,19.2-29.6,29.1-29.6H1411c3.4,0,7,1.5,10.6,4.2c7,5.2,13.7,14.6,17.3,25.4l90.2,267.7
						C1534.7,1391.7,1525.9,1404.9,1509.6,1404.9z"/>
					<path fill="#659CC9" d="M1509.6,1416.4h-534c-10.7,0-19.9-4.1-25.7-11.6c-6-7.7-7.8-17.8-5-28.6c0.4-1.6,0.9-3.2,1.5-4.9
						l100.6-267.7c6.9-18.4,22.8-37,39.8-37H1411c5.7,0,11.7,2.2,17.4,6.4c9.1,6.7,17.1,18.3,21.4,31l90.2,267.7
						c3.9,11.6,2.6,23.2-3.6,31.8C1530.6,1411.7,1520.8,1416.4,1509.6,1416.4z M1411,1089.6l-324.2,0c-2.9,0.1-13,8-18.3,22.1
						l-100.6,267.7c-0.3,0.8-0.6,1.6-0.8,2.4c-0.9,3.7-0.6,6.9,0.9,8.9c1.9,2.4,5.5,2.8,7.6,2.8h534c2.7,0,6.3-0.6,8.3-3.3
						c1.8-2.5,2-6.6,0.4-11.1l-90.2-267.7c-2.7-8.1-7.9-15.9-13.3-19.8C1412.7,1090,1411.4,1089.6,1411,1089.6z"/>
				</g>
				<g>
					<g>
						<path fill="#269FFF" d="M1116.8,1179.1h-39.1c-9.7,0-14.1-10.8-9.7-24.2l10.2-31.2c4.4-13.4,14.8-24.2,23.2-24.2h34
							c8.5,0,13.1,10.8,10.3,24.2l-6.4,31.2C1136.7,1168.2,1126.6,1179.1,1116.8,1179.1z"/>
					</g>
					<g>
						<path fill="#269FFF" d="M1216.3,1179.1h-39.1c-9.7,0-15.8-10.8-13.7-24.2l5.1-31.2c2.2-13.4,10.8-24.2,19.3-24.2h34
							c8.5,0,14.9,10.8,14.3,24.2l-1.3,31.2C1234.4,1168.2,1226.1,1179.1,1216.3,1179.1z"/>
					</g>
					<g>
						<path fill="#269FFF" d="M1315.8,1179.1h-39.1c-9.7,0-17.6-10.8-17.6-24.2l0-31.2c0-13.4,6.8-24.2,15.3-24.2h34
							c8.5,0,16.6,10.8,18.3,24.2l3.8,31.2C1332.1,1168.2,1325.5,1179.1,1315.8,1179.1z"/>
					</g>
					<g>
						<path fill="#269FFF" d="M1415.3,1179.1h-39.1c-9.7,0-19.4-10.8-21.6-24.2l-5.1-31.2c-2.2-13.4,2.9-24.2,11.3-24.2h34
							c8.5,0,18.4,10.8,22.3,24.2l9,31.2C1429.8,1168.2,1425,1179.1,1415.3,1179.1z"/>
					</g>
					<g>
						<path fill="#269FFF" d="M1092.9,1281.3h-45.7c-11.4,0-17-10.8-12.7-24.2l10.2-31.2c4.4-13.4,16.1-24.2,26.2-24.2h40.6
							c10.1,0,16.1,10.8,13.3,24.2l-6.4,31.2C1115.7,1270.5,1104.3,1281.3,1092.9,1281.3z"/>
					</g>
					<g>
						<path fill="#269FFF" d="M1209.2,1281.3h-45.7c-11.4,0-18.8-10.8-16.6-24.2l5.1-31.2c2.2-13.4,12.1-24.2,22.2-24.2h40.6
							c10.1,0,17.8,10.8,17.3,24.2l-1.3,31.2C1230.2,1270.5,1220.5,1281.3,1209.2,1281.3z"/>
					</g>
					<g>
						<path fill="#269FFF" d="M1325.4,1281.3h-45.7c-11.4,0-20.6-10.8-20.6-24.2l0-31.2c0-13.4,8.2-24.2,18.3-24.2h40.6
							c10.1,0,19.6,10.8,21.3,24.2l3.8,31.2C1344.7,1270.5,1336.8,1281.3,1325.4,1281.3z"/>
					</g>
					<g>
						<path fill="#269FFF" d="M1441.7,1281.3H1396c-11.4,0-22.4-10.8-24.6-24.2l-5.1-31.2c-2.2-13.4,4.2-24.2,14.3-24.2h40.6
							c10.1,0,21.4,10.8,25.2,24.2l9,31.2C1459.2,1270.5,1453.1,1281.3,1441.7,1281.3z"/>
					</g>
					<g>
						<path fill="#269FFF" d="M1069,1383.5h-52.3c-13,0-20-10.8-15.6-24.2l10.2-31.2c4.4-13.4,17.4-24.2,29.2-24.2h47.2
							c11.7,0,19,10.8,16.3,24.2l-6.4,31.2C1094.7,1372.7,1082,1383.5,1069,1383.5z"/>
					</g>
					<g>
						<path fill="#269FFF" d="M1202,1383.5h-52.3c-13,0-21.8-10.8-19.6-24.2l5.1-31.2c2.2-13.4,13.5-24.2,25.2-24.2h47.2
							c11.7,0,20.8,10.8,20.3,24.2l-1.3,31.2C1226,1372.7,1215,1383.5,1202,1383.5z"/>
					</g>
					<g>
						<path fill="#269FFF" d="M1335.1,1383.5h-52.3c-13,0-23.6-10.8-23.6-24.2l0-31.2c0-13.4,9.5-24.2,21.2-24.2h47.2
							c11.7,0,22.6,10.8,24.2,24.2l3.8,31.2C1357.3,1372.7,1348.1,1383.5,1335.1,1383.5z"/>
					</g>
					<g>
						<path fill="#269FFF" d="M1468.1,1383.5h-52.3c-13,0-25.3-10.8-27.5-24.2l-5.1-31.2c-2.2-13.4,5.5-24.2,17.3-24.2h47.2
							c11.7,0,24.4,10.8,28.2,24.2l9,31.2C1488.6,1372.7,1481.1,1383.5,1468.1,1383.5z"/>
					</g>
				</g>
			</g>
			<g>
				<path fill="#3F617D" d="M1391.9,1518H1094c-10.9,0-19.8-8.8-19.8-19.8l0,0c0-10.9,8.8-19.8,19.8-19.8h297.9
					c10.9,0,19.8,8.8,19.8,19.8l0,0C1411.7,1509.1,1402.8,1518,1391.9,1518z"/>
			</g>
			<g opacity="0.1">
				<path fill="#3F617D" d="M1509.6,1404.9h-534c-15.1,0-23.3-11.3-19.6-25.9c15-3.8,29.6-7.8,43.7-11.8
					c37.5-10.8,71.8-22.3,103.2-34.3c12.3-4.7,24.2-9.5,35.7-14.4c11.1-4.7,21.8-9.5,32.1-14.4c33.4-15.8,62.7-32.1,88.4-48.7
					c26.1-16.8,48.5-33.9,67.7-50.8c12.9-11.4,24.4-22.7,34.7-33.8c20.3-22.1,35.6-43.5,47-63.2c5.1-8.8,9.5-17.2,13.1-25.3
					c7,5.2,13.7,14.6,17.3,25.4l90.2,267.7C1534.7,1391.7,1525.9,1404.9,1509.6,1404.9z"/>
			</g>
		</g>
		<g>
			<g>
				<rect x="1808.5" y="1377.4" fill="#3F617D" width="113" height="109.8"/>
			</g>
			<g>
				<g>
					<path fill="#80C6FF" d="M2131.6,1404.9h-534c-15.1,0-23.3-11.3-19.6-25.9c0.3-1.2,0.7-2.4,1.1-3.6l100.6-267.7
						c6.1-16.3,19.2-29.6,29.1-29.6h324.2c3.4,0,7,1.5,10.6,4.2c7,5.2,13.7,14.6,17.3,25.4l90.2,267.7
						C2156.7,1391.7,2147.9,1404.9,2131.6,1404.9z"/>
					<path fill="#659CC9" d="M2131.6,1416.4h-534c-10.7,0-19.9-4.1-25.7-11.6c-6-7.7-7.8-17.8-5-28.6c0.4-1.6,0.9-3.2,1.5-4.9
						l100.6-267.7c6.9-18.4,22.8-37,39.8-37h324.2c5.7,0,11.7,2.2,17.4,6.4c9.1,6.7,17.1,18.3,21.4,31l90.2,267.7
						c3.9,11.6,2.6,23.2-3.6,31.8C2152.7,1411.7,2142.8,1416.4,2131.6,1416.4z M2033.1,1089.6l-324.2,0c-2.9,0.1-13,8-18.3,22.1
						l-100.6,267.7c-0.3,0.8-0.6,1.6-0.8,2.4c-0.9,3.7-0.6,6.9,0.9,8.9c1.9,2.4,5.5,2.8,7.6,2.8h534c2.7,0,6.3-0.6,8.3-3.3
						c1.8-2.5,2-6.6,0.4-11.1l-90.2-267.7c-2.7-8.1-7.9-15.9-13.3-19.8C2034.8,1090,2033.4,1089.6,2033.1,1089.6z"/>
				</g>
				<g>
					<g>
						<path fill="#269FFF" d="M1738.9,1179.1h-39.1c-9.7,0-14.1-10.8-9.7-24.2l10.2-31.2c4.4-13.4,14.8-24.2,23.2-24.2h34
							c8.5,0,13.1,10.8,10.3,24.2l-6.4,31.2C1758.7,1168.2,1748.6,1179.1,1738.9,1179.1z"/>
					</g>
					<g>
						<path fill="#269FFF" d="M1838.4,1179.1h-39.1c-9.7,0-15.8-10.8-13.7-24.2l5.1-31.2c2.2-13.4,10.8-24.2,19.3-24.2h34
							c8.5,0,14.9,10.8,14.3,24.2l-1.3,31.2C1856.4,1168.2,1848.1,1179.1,1838.4,1179.1z"/>
					</g>
					<g>
						<path fill="#269FFF" d="M1937.9,1179.1h-39.1c-9.7,0-17.6-10.8-17.6-24.2l0-31.2c0-13.4,6.8-24.2,15.3-24.2h34
							c8.5,0,16.6,10.8,18.3,24.2l3.8,31.2C1954.1,1168.2,1947.6,1179.1,1937.9,1179.1z"/>
					</g>
					<g>
						<path fill="#269FFF" d="M2037.4,1179.1h-39.1c-9.7,0-19.4-10.8-21.6-24.2l-5.1-31.2c-2.2-13.4,2.9-24.2,11.3-24.2h34
							c8.5,0,18.4,10.8,22.3,24.2l9,31.2C2051.9,1168.2,2047.1,1179.1,2037.4,1179.1z"/>
					</g>
					<g>
						<path fill="#269FFF" d="M1715,1281.3h-45.7c-11.4,0-17-10.8-12.7-24.2l10.2-31.2c4.4-13.4,16.1-24.2,26.2-24.2h40.6
							c10.1,0,16.1,10.8,13.3,24.2l-6.4,31.2C1737.8,1270.5,1726.3,1281.3,1715,1281.3z"/>
					</g>
					<g>
						<path fill="#269FFF" d="M1831.2,1281.3h-45.7c-11.4,0-18.8-10.8-16.6-24.2l5.1-31.2c2.2-13.4,12.1-24.2,22.2-24.2h40.6
							c10.1,0,17.8,10.8,17.3,24.2l-1.3,31.2C1852.3,1270.5,1842.6,1281.3,1831.2,1281.3z"/>
					</g>
					<g>
						<path fill="#269FFF" d="M1947.5,1281.3h-45.7c-11.4,0-20.6-10.8-20.6-24.2l0-31.2c0-13.4,8.2-24.2,18.3-24.2h40.6
							c10.1,0,19.6,10.8,21.3,24.2l3.8,31.2C1966.7,1270.5,1958.9,1281.3,1947.5,1281.3z"/>
					</g>
					<g>
						<path fill="#269FFF" d="M2063.8,1281.3H2018c-11.4,0-22.4-10.8-24.6-24.2l-5.1-31.2c-2.2-13.4,4.2-24.2,14.3-24.2h40.6
							c10.1,0,21.4,10.8,25.2,24.2l9,31.2C2081.2,1270.5,2075.1,1281.3,2063.8,1281.3z"/>
					</g>
					<g>
						<path fill="#269FFF" d="M1691,1383.5h-52.3c-13,0-20-10.8-15.6-24.2l10.2-31.2c4.4-13.4,17.4-24.2,29.2-24.2h47.2
							c11.7,0,19,10.8,16.3,24.2l-6.4,31.2C1716.8,1372.7,1704,1383.5,1691,1383.5z"/>
					</g>
					<g>
						<path fill="#269FFF" d="M1824.1,1383.5h-52.3c-13,0-21.8-10.8-19.6-24.2l5.1-31.2c2.2-13.4,13.5-24.2,25.2-24.2h47.2
							c11.7,0,20.8,10.8,20.3,24.2l-1.3,31.2C1848.1,1372.7,1837.1,1383.5,1824.1,1383.5z"/>
					</g>
					<g>
						<path fill="#269FFF" d="M1957.1,1383.5h-52.3c-13,0-23.6-10.8-23.6-24.2l0-31.2c0-13.4,9.5-24.2,21.2-24.2h47.2
							c11.7,0,22.6,10.8,24.2,24.2l3.8,31.2C1979.4,1372.7,1970.1,1383.5,1957.1,1383.5z"/>
					</g>
					<g>
						<path fill="#269FFF" d="M2090.2,1383.5h-52.3c-13,0-25.3-10.8-27.5-24.2l-5.1-31.2c-2.2-13.4,5.5-24.2,17.3-24.2h47.2
							c11.7,0,24.4,10.8,28.2,24.2l9,31.2C2110.6,1372.7,2103.2,1383.5,2090.2,1383.5z"/>
					</g>
				</g>
			</g>
			<g>
				<path fill="#3F617D" d="M2014,1518H1716c-10.9,0-19.8-8.8-19.8-19.8l0,0c0-10.9,8.8-19.8,19.8-19.8H2014
					c10.9,0,19.8,8.8,19.8,19.8l0,0C2033.7,1509.1,2024.9,1518,2014,1518z"/>
			</g>
			<g opacity="0.1">
				<path fill="#3F617D" d="M2131.6,1404.9h-534c-15.1,0-23.3-11.3-19.6-25.9c15-3.8,29.6-7.8,43.7-11.8
					c37.5-10.8,71.8-22.3,103.2-34.3c12.3-4.7,24.2-9.5,35.7-14.4c11.1-4.7,21.8-9.5,32.1-14.4c33.4-15.8,62.7-32.1,88.4-48.7
					c26.1-16.8,48.5-33.9,67.7-50.8c12.9-11.4,24.4-22.7,34.7-33.8c20.3-22.1,35.6-43.5,47-63.2c5.1-8.8,9.5-17.2,13.1-25.3
					c7,5.2,13.7,14.6,17.3,25.4l90.2,267.7C2156.7,1391.7,2147.9,1404.9,2131.6,1404.9z"/>
			</g>
		</g>
		<g>
			<ellipse opacity="0.2" fill="#2D3C5B" enable-background="new    " cx="406.5" cy="1249.8" rx="98.5" ry="19.1"/>
			<g>
				<g>
					<polygon fill="#C47723" points="430,1249.8 383,1249.8 396.9,861.1 420.1,861.1 					"/>
					<path fill="#0EE02C" d="M502.4,843.8c0,73.5-43.1,133-96.3,133s-96.3-59.5-96.3-133s96.3-328.9,96.3-328.9
						S502.4,770.3,502.4,843.8z"/>
				</g>
				<path opacity="0.2" fill="#2D3C5B" enable-background="new    " d="M423,974.8l7,275h-23.9V514.9c0,0,96.3,255.4,96.3,328.9
					C502.4,909.3,468.2,963.8,423,974.8z"/>
			</g>
		</g>
		<g>
			<ellipse opacity="0.2" fill="#2D3C5B" enable-background="new    " cx="601" cy="1413.4" rx="98.5" ry="19.1"/>
			<g>
				<g>
					<polygon fill="#C47723" points="624.5,1413.4 577.5,1413.4 591.4,1024.6 614.6,1024.6 					"/>
					<path fill="#0EE02C" d="M696.9,1007.3c0,73.5-43.1,133-96.3,133s-96.3-59.5-96.3-133s96.3-328.9,96.3-328.9
						S696.9,933.8,696.9,1007.3z"/>
				</g>
				<path opacity="0.2" fill="#2D3C5B" enable-background="new    " d="M617.5,1138.3l7,275h-23.9V678.4c0,0,96.3,255.4,96.3,328.9
					C696.9,1072.9,662.6,1127.3,617.5,1138.3z"/>
			</g>
		</g>
		<g>
			<ellipse opacity="0.2" fill="#2D3C5B" enable-background="new    " cx="182.1" cy="1364.8" rx="98.5" ry="19.1"/>
			<g>
				<g>
					<polygon fill="#C47723" points="205.6,1364.8 158.7,1364.8 172.5,976 195.7,976 					"/>
					<path fill="#0EE02C" d="M278.1,958.7c0,73.5-43.1,133-96.3,133s-96.3-59.5-96.3-133s96.3-328.9,96.3-328.9
						S278.1,885.2,278.1,958.7z"/>
				</g>
				<path opacity="0.2" fill="#2D3C5B" enable-background="new    " d="M198.6,1089.7l7,275h-23.9V629.8c0,0,96.3,255.4,96.3,328.9
					C278.1,1024.3,243.8,1078.7,198.6,1089.7z"/>
			</g>
		</g>
		<g>
			<ellipse opacity="0.2" fill="#2D3C5B" enable-background="new    " cx="2697.5" cy="1433.4" rx="85.7" ry="16.6"/>
			<g>
				<g>
					<polygon fill="#C47723" points="2717.9,1433.4 2677,1433.4 2689.1,1095.5 2709.3,1095.5 					"/>
					<path fill="#0EE02C" d="M2780.8,1080.5c0,63.9-37.5,115.6-83.7,115.6c-46.2,0-83.7-51.8-83.7-115.6s83.7-285.9,83.7-285.9
						S2780.8,1016.6,2780.8,1080.5z"/>
				</g>
				<path opacity="0.2" fill="#2D3C5B" enable-background="new    " d="M2711.8,1194.4l6.1,239.1h-20.7V794.6
					c0,0,83.7,222,83.7,285.9C2780.8,1137.5,2751,1184.8,2711.8,1194.4z"/>
			</g>
		</g>
		<g>
			<ellipse opacity="0.2" fill="#2D3C5B" enable-background="new    " cx="2866.5" cy="1575.6" rx="85.7" ry="16.6"/>
			<g>
				<g>
					<polygon fill="#C47723" points="2886.9,1575.6 2846.1,1575.6 2858.2,1237.7 2878.3,1237.7 					"/>
					<path fill="#0EE02C" d="M2949.9,1222.6c0,63.9-37.5,115.7-83.7,115.7c-46.2,0-83.7-51.8-83.7-115.7s83.7-285.9,83.7-285.9
						S2949.9,1158.7,2949.9,1222.6z"/>
				</g>
				<path opacity="0.2" fill="#2D3C5B" enable-background="new    " d="M2880.8,1336.5l6.1,239.1h-20.7V936.8
					c0,0,83.7,222,83.7,285.9C2949.9,1279.6,2920.1,1326.9,2880.8,1336.5z"/>
			</g>
		</g>
		<g>
			<ellipse opacity="0.2" fill="#2D3C5B" enable-background="new    " cx="2502.4" cy="1533.3" rx="85.7" ry="16.6"/>
			<g>
				<g>
					<polygon fill="#C47723" points="2522.8,1533.3 2482,1533.3 2494.1,1195.4 2514.2,1195.4 					"/>
					<path fill="#0EE02C" d="M2585.8,1180.4c0,63.9-37.5,115.7-83.7,115.7c-46.2,0-83.7-51.8-83.7-115.7s83.7-285.9,83.7-285.9
						S2585.8,1116.5,2585.8,1180.4z"/>
				</g>
				<path opacity="0.2" fill="#2D3C5B" enable-background="new    " d="M2516.8,1294.3l6.1,239.1h-20.7V894.5
					c0,0,83.7,222,83.7,285.9C2585.8,1237.4,2556,1284.7,2516.8,1294.3z"/>
			</g>
		</g>
		<g>
			<path opacity="0.45" fill="#FFF200" d="M983.3,323.5c0,8.6-59.5,13.5-60.5,21.9c-1,8.5,55.5,27.5,53.5,35.6
				c-2,8.3-61-1.1-63.9,6.8c-3,8,47.3,40,43.4,47.5c-4,7.6-58.9-15.8-63.7-8.8c-4.8,7,36.4,50.1,30.7,56.5
				c-5.6,6.4-53.4-29.4-59.8-23.7c-6.4,5.6,23.4,57.3,16.4,62.2c-7,4.8-44.8-41.3-52.4-37.3c-7.5,3.9,9,61.3,1,64.3
				c-7.9,3-33.6-50.8-41.9-48.8c-8.2,2-5.9,61.6-14.5,62.6c-8.3,1-20.4-57.4-28.9-57.4s-20.6,58.4-28.9,57.4
				c-8.5-1-6.3-60.6-14.5-62.6c-8.3-2-34,51.8-41.9,48.8c-8-3,8.5-60.4,1-64.3c-7.6-4-45.4,42.1-52.4,37.3s22.8-56.5,16.4-62.2
				c-6.4-5.6-54.1,30.1-59.8,23.7c-5.6-6.4,35.6-49.5,30.7-56.5c-4.8-7-59.7,16.4-63.7,8.8c-3.9-7.5,46.4-39.5,43.4-47.5
				c-3-7.9-61.9,1.5-63.9-6.8c-2-8.2,54.5-27.1,53.5-35.6c-1-8.3-60.5-13.3-60.5-21.9c0-8.6,59.5-13.5,60.5-21.9
				c1-8.5-55.5-27.5-53.5-35.6c2-8.3,61,1.1,63.9-6.8c3-8-47.3-40-43.4-47.5c4-7.6,58.9,15.8,63.7,8.8c4.8-7-36.4-50.1-30.7-56.5
				c5.6-6.4,53.4,29.4,59.8,23.7c6.4-5.6-23.4-57.3-16.4-62.2c7-4.8,44.8,41.3,52.4,37.3c7.5-3.9-9-61.3-1-64.3
				c7.9-3,33.6,50.8,41.9,48.8c8.2-2,5.9-61.6,14.5-62.6c8.3-1,20.4,57.4,28.9,57.4s20.6-58.4,28.9-57.4c8.5,1,6.3,60.6,14.5,62.6
				c8.3,2,34-51.8,41.9-48.8c8,3-8.5,60.4-1,64.3c7.6,4,45.4-42.1,52.4-37.3c7,4.8-22.8,56.5-16.4,62.2c6.4,5.6,54.1-30.1,59.8-23.7
				c5.6,6.4-35.6,49.5-30.7,56.5c4.8,7,59.7-16.4,63.7-8.8c3.9,7.5-46.4,39.5-43.4,47.5c3,7.9,61.9-1.5,63.9,6.8
				c2,8.2-54.5,27.1-53.5,35.6C923.8,310,983.3,314.9,983.3,323.5z"/>
			<circle fill="#FFF200" cx="742.8" cy="323.5" r="123.6"/>
		</g>
	</g>
</g>
</svg>
