<?xml version="1.0" encoding="UTF-8"?>
<svg viewBox="0 0 1022 978" xmlns="http://www.w3.org/2000/svg">
 <path d="m0 238.5v-229.5h566l-5.5 4.8q-5.5 4.7-11.3 15.4-5.7 10.8-11.2 27.8t-9 35-5 33-1 41 3 33 4.2 10q1.8 3 7.8 6.2 6 3.3 13 3.3t10.5-1.3q3.5-1.2 9.3-7.7 5.7-6.5 9.2-14t9-27 9-40.5 5.5-38.5 2-37-3.7-26.3q-3.8-6.7-6.3-9.2t-4.5-3.5-3-1.5l-1-0.5-1-0.5-1-0.5-2-0.5-2-0.5v-0.5h441v438h-0.5l-0.5-4-0.5-4-3.3-6.8q-3.2-6.7-9.2-9.7t-31.5-1.5-48 4.5-45 8-40.3 11.3q-17.7 6.2-23.7 9.7t-10 7.5-4 11 4.7 12.8q4.8 5.7 10.3 9.2t12.5 6.5 25 3 55.5-7 58-12.5 30-9.5 12.7-7.3q3.3-3.2 4.3-5.2t1.5-3l0.5-1 0.5-3.5 0.5-3.5h0.5v535h-496v-0.5l1-0.5 1-0.5 1-0.5 1-0.5 1-0.5 1-0.5 0.2-0.3 0.3-0.2 0.3-0.2q0.20001-0.29999 2.4-3 2.3-2.8 5.8-8.8t7-16.5 6.5-29 3.5-42-3-44.5-8-32-8.2-15.8q-3.8-4.7-8.8-8.2t-10.5-3.5-6 1.3q-0.5 1.2-1.5 1.4-1 0.29999-2.8 3-1.7 2.8-5.7 12.3t-8 31.5-4 62.5 2.5 52.5 5.5 20.5 6.3 13.5q3.2 5 4.2 5.2l1 0.3 0.2 0.3 0.3 0.2 0.3 0.2 0.2 0.3 1 0.5 1 0.5 1 0.5 1 0.5v0.5h-516v-508h0.5l0.5 1.5 0.5 1.5 0.3 0.2 0.2 0.3 0.2 0.3 0.3 0.2 0.3 0.2 0.2 0.3 0.2 0.3 0.3 0.2 0.3 0.2 0.2 0.3 0.2 0.3q0.3 0.20001 4 2.7 3.8 2.5 3.8 3.5t14.5 6.2q14.5 5.3 30.5 8.3t38.5 4 44-1.5 33-6 20-9 10.7-9.2q2.3-3.8 2.8-9.3t-3-11-8-8.5-12.8-6.8q-8.2-3.7-25.7-7.7t-44.5-5-43 0.5-33.5 7-24.7 11.8l-7.3 6.2-0.5 1-0.5 1-0.5 1-0.5 1-0.5 1.5-0.5 1.5h-0.5v-229.5zm248.8-209.7l0.2-0.3h3q3 0 7.5 2.5t10 8 16.7 21.2q11.3 15.8 13.6 20.3 2.2 4.5 3.2 4.5t6.5 10.8q5.5 10.7 14.7 31.4 9.3 20.8 14.3 38.3t7 31 0 18.5-5.3 7.2q-3.2 2.3-7.7 2.8t-10-1-11-5.2q-5.5-3.8-5.7-4.8-0.29999-1-4.6-4.8-4.2-3.7-15.7-16.7t-19.5-25-10.5-16.5-6.3-12.8q-3.7-8.2-7.7-22.7t-4-33.5 3-31.5 5.5-17 2.8-4.7zm602.7 158.2q2.5-0.5 10.5 0.5t11.5 3.5 8.7 8.8q5.3 6.2 5.8 14.2t-0.5 10-5 6.5-10.3 10q-6.2 5.5-6.4 6.5-0.29999 1-11 10.2-10.8 9.3-14.3 13-3.5 3.8-18 13.6-14.5 9.7-29.5 17.2t-26.5 9-18 0-10.7-4.8q-4.3-3.2-7.3-7.2t-3-10.5 3-11 5.3-6.5q2.2-2 5.4-6 3.3-4 16.6-14.8 13.2-10.7 14.7-12.4 1.5-1.8 4.7-3.3 3.3-1.5 29.3-18.5t34.3-22.2q8.2-5.3 10.7-5.8zm-787.7 24.2q11.2 0.3 33.2 7.3t41.5 16 30.7 15.3q11.3 6.2 24.6 14.4 13.2 8.3 16.2 10 3 1.8 5 4 2 2.3 8.8 9 6.7 6.8 10.2 12.3t5 9.5 1 9.5-2.8 9.3q-2.2 3.7-7.2 6.7t-17.5 2.5-30-7-28.7-12.8q-11.3-6.2-28.6-17.4-17.2-11.3-27.4-19.6-10.3-8.2-20.8-19.2t-17.5-22-7-19.5 11.3-8.3zm436.2 292.8l8.5 6 0.3 0.2 0.2 0.3 3.5 0.3 3.5 0.2 0.2-1 0.3-1v-5l-0.5-2q-0.5-2-1.5-5.5t-6.5-16.5-6-22 0.5-12.5 3-6 7.5-7 14.2-8.3q8.8-3.7 23.8-4.2t25 2 17 6 12.8 9.2q5.7 5.8 10.2 12.8t8 16.5 4 19-2.5 23.5-11 30-13.7 22.8q-5.8 6.7-9.3 11-3.5 4.2-9 8-5.5 3.7-15.5 8.7t-22.5 8-39.5 3.5-35.5-1-16-4-12.5-6.5-10.5-12-12.3-20.3q-6.7-12.2-14.2-30.2t-10.5-28.5-3.5-24.5 0.5-19.5 4.5-17 9.5-23 14.5-23 25.5-29 19.7-19q2.8-1.5 3-2.5 0.29999-1 3-2.8 2.8-1.7 14-10 11.3-8.2 23.3-15.2t26.7-12.8q14.8-5.7 26.3-8.2t30.5-3 25.5 0.5 23 5 32.5 12 26 15 14 11.7q4 4.8 5 5 1 0.29996 7.5 7.8t14.3 19.8q7.7 12.2 11.2 22.2t7 33 3.5 59.5-2.5 52.5-8 31-11.5 25.5-15 22-18.5 21-23 20-27.2 19.3q-13.8 8.7-29.8 17.2t-38 17.5-44.5 15-47.5 10-52.5 4-36-1.5-25.5-6-33.5-12.5-27.5-15.5-22-17.5-22.5-23.5-20.7-29.2q-9.3-15.8-14.8-31.3t-9-32.5-4.5-36.5 0.5-40.5 5.5-41 9.5-36 13.5-32 15-27 19-25 30.3-30.8q18.2-16.7 19.7-18.4 1.5-1.8 15.3-11.8 13.7-10 25-17.2 11.2-7.3 24.2-13.3t24.5-6.5 18 2 8.5 4.8q2 2.2 3 2.4 1 0.3 4.2 6.6 3.3 6.2 3.8 17.7t-3 24.5-9.2 22.5q-5.8 9.5-6.8 9.7-1 0.29996-5.2 5-4.3 4.8-11.6 9-7.2 4.3-17.7 12.8t-21.5 19.5-17.5 19.7q-6.5 8.8-7.5 9-1 0.29996-9.5 14.8t-14.7 29.8q-6.3 15.2-10.3 34.7t-4.5 35.5 1.5 29 7 26.5 12.5 25.5 11.2 15.5q3.8 3.5 4 4.5 0.29999 1 3 3 2.8 2 3 3 0.29999 1 7 6.8 6.8 5.7 11.3 8 4.5 2.2 4.5 3.2t11.8 6q11.7 5 28 8.8 16.2 3.7 32.2 4.2t35-2.5 30.5-7 23-9.5 14.5-7 8.5-5 17.5-13 15.5-13.2q3.5-3.8 4.5-4 1-0.29999 6-6 5-5.8 6.2-6.3 1.3-0.5 13.8-17t21-33.5 13.5-34 7-33.5 1-34-3.3-19.5q-2.2-2-2.4-3-0.29999-1-6.3-8t-12.5-12.5-15.8-10.7q-9.2-5.3-19.7-8.3t-23.5-3.5-26 2-26.5 8-26.5 12.5-21.8 14.3q-8.7 7.2-12.4 10.7-3.8 3.5-5.8 7.3-2 3.7-4.8 10.4-2.7 6.8-3.2 18.8t1 17.5 5.5 14.5 9 14 13.5 11zm295 94q13-0.5 24.5 3t24.5 10.5 31.5 18.7q18.5 11.8 18.5 12.8t2.5 2.2q2.5 1.3 6 3 3.5 1.8 3.7 2.8 0.29999 1 24 17.8 23.8 16.7 27.6 21 3.7 4.2 4.2 11.2t-2.5 16-7.3 13.8q-4.2 4.7-12.2 4.7t-22-7-45-23.5-36.5-19.2q-5.5-2.8-5.5-3.8t-1-1.2q-1-0.29999-24.5-14.8t-28.7-18.8q-5.3-4.2-7.8-8.2t-3-11.5 0.5-10 3-6.5 7.3-8.2q5.2-4.3 18.2-4.8zm-588 47q12-0.5 15 0.79999 3 1.2 4.8 3.7 1.7 2.5 2.2 9.5t-1.5 11-7 11.5-16.3 17.7q-11.2 10.3-15.7 13-4.5 2.8-4.5 3.8t-8.2 5.5q-8.3 4.5-21.6 11.3-13.2 6.7-23.2 9.7t-18.5 3.5-13-1-7.5-4-4.2-6.2q-1.3-3.8-0.8-7.3t3.5-8.5 15.7-17.8q12.8-12.7 22.3-19.4 9.5-6.8 9.5-7.8t6.8-4.5q6.7-3.5 17.7-9.5t21.7-10.2q10.8-4.3 22.8-4.8zm464 77q8-0.5 14.5 2t13.5 8.5 15.2 16.3q8.3 10.2 17.6 25.4 9.2 15.3 31.4 64 22.3 48.8 22.8 54.8t-0.5 9.5-5.7 8.7q-4.8 5.3-10.8 8.3t-12.5 3.5-10.5-1-17-12.8q-13-11.2-17-16.4-4-5.3-15.8-20.6-11.7-15.2-23.2-35.2t-21.5-45-10-37.5 3.3-18q3.2-5.5 5-6.5 1.7-1 7.4-4.2 5.8-3.3 13.8-3.8zm-310 31q7-0.5 11 2t6.8 7.2q2.7 4.8 3.2 13.8t-1 19-6.5 25-14 34-20.7 37q-11.8 18-12.8 18.2-1 0.29999-5.5 6-4.5 5.8-7 7.6-2.5 1.7-11.5 8.2t-15.5 7-9.7-1.2q-3.3-1.8-5.8-5.8t-2.5-18.5 4-29.5 10-31 15-32.5 20.3-32q11.2-15.5 16.2-19.7 5-4.3 12-9.3t14-5.5z" fill="#fff"/>
 <g fill="#ffe500">
  <path d="m500 495l8.5 6 0.3 0.2 0.2 0.3 3.5 0.3 3.5 0.2 0.2-1 0.3-1v-5l-0.5-2q-0.5-2-1.5-5.5t-6.5-16.5-6-22 0.5-12.5 3-6 7.5-7 14.2-8.3q8.8-3.7 23.8-4.2t25 2 17 6 12.8 9.2q5.7 5.8 10.2 12.8t8 16.5 4 19-2.5 23.5-11 30-13.7 22.8q-5.8 6.7-9.3 11-3.5 4.2-9 8-5.5 3.7-15.5 8.7t-22.5 8-39.5 3.5-35.5-1-16-4-12.5-6.5-10.5-12-12.3-20.3q-6.7-12.2-14.2-30.2t-10.5-28.5-3.5-24.5 0.5-19.5 4.5-17 9.5-23 14.5-23 25.5-29 19.7-19q2.8-1.5 3-2.5 0.29999-1 3-2.8 2.8-1.7 14-10 11.3-8.2 23.3-15.2t26.7-12.8q14.8-5.7 26.3-8.2t30.5-3 25.5 0.5 23 5 32.5 12 26 15 14 11.7q4 4.8 5 5 1 0.29999 7.5 7.8t14.3 19.8q7.7 12.2 11.2 22.2t7 33 3.5 59.5-2.5 52.5-8 31-11.5 25.5-15 22-18.5 21-23 20-27.2 19.3q-13.8 8.7-29.8 17.2t-38 17.5-44.5 15-47.5 10-52.5 4-36-1.5-25.5-6-33.5-12.5-27.5-15.5-22-17.5-22.5-23.5-20.7-29.2q-9.3-15.8-14.8-31.3t-9-32.5-4.5-36.5 0.5-40.5 5.5-41 9.5-36 13.5-32 15-27 19-25 30.3-30.8q18.2-16.7 19.7-18.4 1.5-1.8 15.3-11.8 13.7-10 25-17.2 11.2-7.3 24.2-13.3t24.5-6.5 18 2 8.5 4.8q2 2.2 3 2.4 1 0.3 4.2 6.6 3.3 6.2 3.8 17.7t-3 24.5-9.2 22.5q-5.8 9.5-6.8 9.7-1 0.29999-5.2 5-4.3 4.8-11.6 9-7.2 4.3-17.7 12.8t-21.5 19.5-17.5 19.7q-6.5 8.8-7.5 9-1 0.29999-9.5 14.8t-14.7 29.8q-6.3 15.2-10.3 34.7t-4.5 35.5 1.5 29 7 26.5 12.5 25.5 11.2 15.5q3.8 3.5 4 4.5 0.29999 1 3 3 2.8 2 3 3 0.29999 1 7 6.8 6.8 5.7 11.3 8 4.5 2.2 4.5 3.2t11.8 6q11.7 5 28 8.8 16.2 3.7 32.2 4.2t35-2.5 30.5-7 23-9.5 14.5-7 8.5-5 17.5-13 15.5-13.2q3.5-3.8 4.5-4 1-0.29999 6-6 5-5.8 6.2-6.3 1.3-0.5 13.8-17t21-33.5 13.5-34 7-33.5 1-34-3.3-19.5q-2.2-2-2.4-3-0.29999-1-6.3-8t-12.5-12.5-15.8-10.7q-9.2-5.3-19.7-8.3t-23.5-3.5-26 2-26.5 8-26.5 12.5-21.8 14.3q-8.7 7.2-12.4 10.7-3.8 3.5-5.8 7.3-2 3.7-4.8 10.4-2.7 6.8-3.2 18.8t1 17.5 5.5 14.5 9 14 13.5 11z"/>
  <path d="m671 713q8-0.5 14.5 2t13.5 8.5 15.2 16.3q8.3 10.2 17.6 25.4 9.2 15.3 31.4 64 22.3 48.8 22.8 54.8t-0.5 9.5-5.7 8.7q-4.8 5.3-10.8 8.3t-12.5 3.5-10.5-1-17-12.8q-13-11.2-17-16.4-4-5.3-15.8-20.6-11.7-15.2-23.2-35.2t-21.5-45-10-37.5 3.3-18q3.2-5.5 5-6.5 1.7-1 7.4-4.2 5.8-3.3 13.8-3.8z"/>
  <path d="m560.5 4.8l5.5-4.8h15v0.5l2 0.5 2 0.5 1 0.5 1 0.5 1 0.5q1 0.5 3 1.5t4.5 3.5 6.3 9.2q3.7 6.8 3.7 26.3t-2 37-5.5 38.5-9 40.5-9 27-9.2 14q-5.8 6.5-9.3 7.7-3.5 1.3-10.5 1.3t-13-3.3q-6-3.2-7.8-6.2-1.7-3-4.2-10t-3-33 1-41 5-33 9-35 11.2-27.8q5.8-10.7 11.3-15.4z"/>
  <path d="m4.2 475.8l-0.2-0.3-0.2-0.3-0.3-0.2-0.3-0.2-0.2-0.3-0.2-0.3-0.3-0.2-0.3-0.2-0.2-0.3-0.2-0.3-0.3-0.2-0.5-1.5-0.5-1.5h-0.5v-11h0.5l0.5-1.5 0.5-1.5 0.5-1 0.5-1 0.5-1 0.5-1 7.3-6.2q7.2-6.3 24.7-11.8t33.5-7 43-0.5 44.5 5 25.7 7.7q8.3 3.8 12.8 6.8t8 8.5 3 11-2.8 9.3q-2.2 3.7-10.7 9.2t-20 9-33 6-44 1.5-38.5-4-30.5-8.3q-14.5-5.2-14.5-6.2t-3.8-3.5q-3.7-2.5-4-2.7z"/>
  <path d="m795 589q13-0.5 24.5 3t24.5 10.5 31.5 18.7q18.5 11.8 18.5 12.8t2.5 2.2q2.5 1.3 6 3 3.5 1.8 3.7 2.8 0.29999 1 24 17.8 23.8 16.7 27.6 21 3.7 4.2 4.2 11.2t-2.5 16-7.3 13.8q-4.2 4.7-12.2 4.7t-22-7-45-23.5-36.5-19.2q-5.5-2.8-5.5-3.8t-1-1.2q-1-0.29999-24.5-14.8t-28.7-18.8q-5.3-4.2-7.8-8.2t-3-11.5 0.5-10 3-6.5 7.3-8.2q5.2-4.3 18.2-4.8z"/>
  <path d="m248.8 19.8l0.2-0.3h3q3 0 7.5 2.5t10 8 16.7 21.2q11.3 15.8 13.6 20.3 2.2 4.5 3.2 4.5t6.5 10.8q5.5 10.7 14.7 31.4 9.3 20.8 14.3 38.3t7 31 0 18.5-5.3 7.2q-3.2 2.3-7.7 2.8t-10-1-11-5.2q-5.5-3.8-5.7-4.8-0.29999-1-4.6-4.8-4.2-3.7-15.7-16.7t-19.5-25-10.5-16.5-6.3-12.8q-3.7-8.2-7.7-22.7t-4-33.5 3-31.5 5.5-17 2.8-4.7z"/>
  <path d="m1017.2 423.2l3.3 6.8 0.5 4 0.5 4h0.5v5h-0.5l-0.5 3.5-0.5 3.5-0.5 1q-0.5 1-1.5 3t-4.3 5.2q-3.2 3.3-12.7 7.3t-30 9.5-58 12.5-55.5 7-25-3-12.5-6.5-10.3-9.2q-4.7-5.8-4.7-12.8t4-11 10-7.5 23.7-9.7q17.8-6.3 40.3-11.3t45-8 48-4.5 31.5 1.5 9.2 9.7z"/>
  <path d="m532.8 973.8l-0.3 0.2-0.3 0.2-0.2 0.3-1 0.5-1 0.5-1 0.5-1 0.5-1 0.5-1 0.5v0.5h-10v-0.5l-1-0.5-1-0.5-1-0.5-1-0.5-0.2-0.3-0.3-0.2-0.3-0.2-0.2-0.3-1-0.3q-1-0.20001-4.2-5.2-3.3-5-6.3-13.5t-5.5-20.5-2.5-52.5 4-62.5 8-31.5 5.7-12.3q1.8-2.7 2.8-3 1-0.20001 1.5-1.4 0.5-1.3 6-1.3t10.5 3.5 8.8 8.2q3.7 4.8 8.2 15.8t8 32 3 44.5-3.5 42-6.5 29-7 16.5-5.8 8.8q-2.2 2.7-2.4 3z"/>
  <path d="m361 744q7-0.5 11 2t6.8 7.2q2.7 4.8 3.2 13.8t-1 19-6.5 25-14 34-20.7 37q-11.8 18-12.8 18.2-1 0.29999-5.5 6-4.5 5.8-7 7.6-2.5 1.7-11.5 8.2t-15.5 7-9.7-1.2q-3.3-1.8-5.8-5.8t-2.5-18.5 4-29.5 10-31 15-32.5 20.3-32q11.2-15.5 16.2-19.7 5-4.3 12-9.3t14-5.5z"/>
  <path d="m63.8 202.2q11.2 0.3 33.2 7.3t41.5 16 30.7 15.3q11.3 6.2 24.6 14.4 13.2 8.3 16.2 10 3 1.8 5 4 2 2.3 8.8 9 6.7 6.8 10.2 12.3t5 9.5 1 9.5-2.8 9.3q-2.2 3.7-7.2 6.7t-17.5 2.5-30-7-28.7-12.8q-11.3-6.2-28.6-17.4-17.2-11.3-27.4-19.6-10.3-8.2-20.8-19.2t-17.5-22-7-19.5 11.3-8.3z"/>
  <path d="m851.5 178q2.5-0.5 10.5 0.5t11.5 3.5 8.7 8.8q5.3 6.2 5.8 14.2t-0.5 10-5 6.5-10.3 10q-6.2 5.5-6.4 6.5-0.29999 1-11 10.2-10.8 9.3-14.3 13-3.5 3.8-18 13.6-14.5 9.7-29.5 17.2t-26.5 9-18 0-10.7-4.8q-4.3-3.2-7.3-7.2t-3-10.5 3-11 5.3-6.5q2.2-2 5.4-6 3.3-4 16.6-14.8 13.2-10.7 14.7-12.4 1.5-1.8 4.7-3.3 3.3-1.5 29.3-18.5t34.3-22.2q8.2-5.3 10.7-5.8z"/>
  <path d="m207 636q12-0.5 15 0.79999 3 1.2 4.8 3.7 1.7 2.5 2.2 9.5t-1.5 11-7 11.5-16.3 17.7q-11.2 10.3-15.7 13-4.5 2.8-4.5 3.8t-8.2 5.5q-8.3 4.5-21.6 11.3-13.2 6.7-23.2 9.7t-18.5 3.5-13-1-7.5-4-4.2-6.2q-1.3-3.8-0.8-7.3t3.5-8.5 15.7-17.8q12.8-12.7 22.3-19.4 9.5-6.8 9.5-7.8t6.8-4.5q6.7-3.5 17.7-9.5t21.7-10.2q10.8-4.3 22.8-4.8z"/>
 </g>
</svg>
