<?xml version="1.0" encoding="UTF-8"?>
<svg enable-background="new 0 0 595.28 841.89" viewBox="0 0 595.28 841.89" xmlns="http://www.w3.org/2000/svg">
 <defs>
  <linearGradient id="g" x1="266.5" x2="327.26" gradientUnits="userSpaceOnUse">
   <stop stop-color="#666" offset=".236"/>
   <stop stop-color="#b3b3b3" offset=".6404"/>
   <stop stop-color="#a4a4a4" offset=".7508"/>
   <stop stop-color="#808080" offset=".9551"/>
  </linearGradient>
  <linearGradient id="f" x1="332.37" x2="548.86" gradientUnits="userSpaceOnUse">
   <stop stop-color="#adadad" offset=".0495"/>
   <stop stop-color="#e5e5e5" offset=".9011"/>
  </linearGradient>
  <linearGradient id="e" x2="0" y1="276.19" y2="69.393" gradientUnits="userSpaceOnUse">
   <stop stop-color="#adadad" offset=".0495"/>
   <stop stop-color="#e5e5e5" offset=".9011"/>
  </linearGradient>
  <linearGradient id="d" x1="254.1" x2="130" y1="336" y2="516.68" gradientUnits="userSpaceOnUse">
   <stop stop-color="#adadad" offset=".0495"/>
   <stop stop-color="#e5e5e5" offset=".9011"/>
  </linearGradient>
  <linearGradient id="c" x2="0" y1="364.68" y2="263.09" gradientUnits="userSpaceOnUse">
   <stop stop-color="#0d0d0d" offset="0"/>
   <stop stop-color="#1c1c1c" offset=".0658"/>
   <stop stop-color="#2d2d2d" offset=".1668"/>
   <stop stop-color="#333" offset=".2418"/>
   <stop stop-color="#b2b2b2" offset=".8956"/>
  </linearGradient>
  <linearGradient id="a" x2="0" y1="721.74" y2="596.02" gradientUnits="userSpaceOnUse">
   <stop stop-color="#5f9b2d" offset="0"/>
   <stop stop-color="#adc90e" offset=".6129"/>
  </linearGradient>
  <radialGradient id="h" cx="1547.5" cy="18119" r="309.42" gradientTransform="matrix(.8724 0 0 .05 -1052.4 -184.82)" gradientUnits="userSpaceOnUse">
   <stop stop-color="#373636" offset="0"/>
   <stop stop-color="#3e3e3d" offset=".0742"/>
   <stop stop-color="#515150" offset=".1777"/>
   <stop stop-color="#6e6e6d" offset=".2987"/>
   <stop stop-color="#939393" offset=".4317"/>
   <stop stop-color="#9b9b9a" offset=".4581"/>
   <stop stop-color="#b9b8b8" offset=".5564"/>
   <stop stop-color="#d2d2d2" offset=".6658"/>
   <stop stop-color="#e2e2e2" offset=".7569"/>
   <stop stop-color="#e7e7e7" offset=".8177"/>
   <stop stop-color="#fff" offset="1"/>
  </radialGradient>
  <radialGradient id="b" cx="141.2" cy="267.6" r="40.296" gradientTransform="matrix(-1 0 0 1 434.53 0)" gradientUnits="userSpaceOnUse">
   <stop stop-color="#ebebeb" offset="0"/>
   <stop stop-color="#c2c2c2" offset=".6099"/>
   <stop stop-color="#bbb" offset=".7282"/>
   <stop stop-color="#ababab" offset=".8791"/>
  </radialGradient>
 </defs>
 <path d="m567.67 721.13c0 8.527-120.9 15.463-270.04 15.463s-270.02-6.936-270.02-15.463 120.89-15.467 270.02-15.467 270.04 6.94 270.04 15.467z" fill="url(#h)"/>
 <path d="m315.4 348.04 11.855 293.4h-60.757l14.828-290.43z" fill="url(#g)"/>
 <path d="m548.811,383.25-2.097-25.085c-.468-5.424-4.115-10.09-9.285-11.826l-146.983-49.429c-2.837-.941-5.815-.947-8.652-.012l-36.094,11.91c-4.465,1.462-7.857,5.134-8.971,9.717l-3.956,16.042c-1.818,7.313 2.665,14.751 10.008,16.54l189.128,46.568c.338.089.67.172 1.007.231 3.95.651 8.071-.468 11.156-3.098 3.347-2.847 5.106-7.182 4.739-11.558z" fill="url(#f)"/>
 <path d="m180.241,72.228 25.013-2.753c5.431-.592 10.695,2.084 13.389,6.822l76.71,134.785c1.469,2.594 2.043,5.525 1.664,8.486l-4.749,37.692c-.586,4.684-3.547,8.717-7.811,10.712l-14.982,6.946c-6.864,3.186-15.006.201-18.18-6.662l-81.98-176.663c-.142-.326-.272-.64-.391-.971-1.416-3.766-1.107-8.006.882-11.536 2.163-3.826 6.083-6.414 10.435-6.858z" fill="url(#e)"/>
 <path d="m183.137,98.687c1.854-3.257 5.211-5.483 8.936-5.862l21.455-2.369c2.718-.302 5.371.379 7.574,1.783l-5.075-8.936c-2.103-3.689-6.218-5.779-10.458-5.317l-19.518,2.149c-3.393.355-6.449,2.369-8.142,5.347-1.552,2.76-1.794,6.07-.687,9.007 .095.249.201.492.302.758l4.157,8.948c.041-1.902.491-3.803 1.456-5.508z" fill="#fff"/>
 <path d="m137.409,526.904-14.905-20.316c-3.228-4.389-3.518-10.293-.776-15l78.38-133.808c1.522-2.57 3.737-4.542 6.52-5.714l35.015-14.698c4.317-1.842 9.315-1.297 13.176,1.427l13.496,9.48c6.188,4.341 7.692,12.886 3.333,19.068l-112.016,159.33c-.207.291-.414.545-.627.811-2.564,3.109-6.39,4.975-10.44,5.01-4.399.037-8.586-2.055-11.156-5.59z" fill="url(#d)"/>
 <path d="m242.53 313.88c0 28.057 22.751 50.796 50.802 50.796 28.075 0 50.821-22.739 50.821-50.796 0-28.069-22.746-50.791-50.821-50.791-28.051 1e-3 -50.802 22.722-50.802 50.791z" fill="url(#c)"/>
 <path d="m293.33 271.77c-15.68 0-29.745 8.065-39.391 17.694 8.231-13.123 22.763-21.863 39.391-21.863 16.611 0 31.161 8.741 39.397 21.863-9.658-9.629-23.692-17.694-39.397-17.694z" fill="url(#b)"/>
 <path d="m160.273,509.885c-3.749.043-7.349-1.758-9.552-4.801l-12.773-17.393c-1.605-2.209-2.351-4.844-2.227-7.455l-5.205,8.875c-2.144,3.666-1.913,8.268.622,11.703l11.606,15.828c2.001,2.766 5.282,4.412 8.705,4.375 3.168-.029 6.153-1.473 8.154-3.896 .166-.207.326-.42.509-.645l5.667-8.072c-1.68.912-3.534,1.469-5.506,1.481z" fill="#fff"/>
 <path d="m520.546,386.998c2.937-2.345 4.583-6.022 4.388-9.765l-1.09-21.567c-.153-2.712-1.231-5.223-2.973-7.171l9.635,3.583c3.985,1.475 6.703,5.211 6.923,9.469l.989,19.607c.195,3.411-1.315,6.763-3.992,8.895-2.48,1.978-5.702,2.742-8.775,2.12l-.8-.178-9.486-2.671c1.864-.374 3.664-1.096 5.181-2.322z" fill="#fff"/>
 <path d="m401.92 596.02c-71.375 0-105.08 42.223-178.42 42.223-52.011 0-80.145-20.922-118.24-33.086v85.154c0 17.328 14.093 31.422 31.426 31.422h329.9c17.321 0 31.408-14.094 31.408-31.422v-75.644c-28.169-9.676-63.172-18.647-96.067-18.647z" fill="url(#a)"/>
</svg>
